<?xml version="1.0" standalone="no"?>
<!DOCTYPE svg PUBLIC "-//W3C//DTD SVG 20010904//EN"
 "http://www.w3.org/TR/2001/REC-SVG-20010904/DTD/svg10.dtd">
<svg version="1.0" xmlns="http://www.w3.org/2000/svg"
 width="2718.000000pt" height="2258.000000pt" viewBox="0 0 2718.000000 2258.000000"
 preserveAspectRatio="xMidYMid meet">
<metadata>
Created by potrace 1.16, written by Peter Selinger 2001-2019
</metadata>
<g transform="translate(0.000000,2258.000000) scale(0.100000,-0.100000)"
fill="#000000" stroke="none">
<path d="M12024 21645 l-39 -34 148 -1 c81 0 147 -4 147 -8 0 -5 -17 -16 -37
-24 -21 -8 -135 -70 -253 -138 -118 -68 -235 -134 -260 -148 -124 -69 -240
-137 -281 -164 -60 -41 -104 -109 -119 -184 -8 -43 -10 -412 -8 -1334 l3
-1275 24 -48 c46 -94 134 -154 251 -171 25 -4 63 -11 85 -16 22 -5 114 -23
205 -40 91 -17 208 -39 260 -49 52 -10 133 -26 180 -35 47 -9 155 -29 240 -46
85 -16 193 -36 240 -45 47 -8 132 -24 190 -35 58 -12 138 -27 178 -34 40 -7
76 -16 80 -20 4 -4 5 -50 4 -101 -10 -245 100 -466 256 -516 20 -6 43 -16 50
-22 9 -7 12 -81 12 -310 0 -282 1 -302 20 -332 24 -39 75 -75 151 -109 l57
-25 4 -133 c3 -92 1 -137 -7 -146 -7 -7 -47 -22 -91 -33 -106 -26 -161 -48
-196 -77 l-28 -24 0 -193 c0 -142 -3 -195 -12 -203 -7 -5 -74 -22 -148 -37
-150 -30 -344 -91 -435 -137 -81 -41 -169 -113 -197 -163 -21 -37 -23 -53 -26
-234 -2 -106 -1 -203 2 -216 3 -12 22 -30 43 -41 21 -10 41 -23 45 -29 4 -5 8
-117 8 -248 0 -198 3 -242 15 -261 18 -27 85 -58 165 -76 30 -7 61 -14 68 -16
9 -3 12 -51 12 -199 l0 -195 -53 -24 c-99 -44 -159 -119 -143 -181 9 -34 53
-83 95 -104 97 -50 294 -98 501 -122 58 -7 111 -17 118 -22 9 -8 12 -80 10
-326 l-3 -316 -60 0 c-33 0 -139 8 -235 17 -96 10 -296 22 -445 28 -571 22
-1051 41 -1320 50 -154 5 -331 12 -392 16 l-113 6 0 268 c0 148 3 275 6 284 3
9 15 16 25 16 20 0 100 39 130 63 30 23 41 87 37 211 l-3 118 -47 43 -48 43 0
262 0 262 -34 32 c-18 17 -41 37 -50 44 -15 12 -16 124 -16 1291 l0 1279 33 6
c51 11 118 49 141 79 18 25 21 45 24 167 l3 138 -30 35 c-37 41 -100 70 -196
90 l-70 14 -5 120 c-6 139 -10 147 -97 189 -100 49 -227 29 -304 -48 -28 -29
-29 -31 -29 -138 0 -74 -4 -111 -12 -117 -7 -5 -40 -15 -73 -23 -73 -15 -145
-51 -180 -87 -24 -27 -25 -32 -25 -170 0 -138 1 -142 26 -173 29 -34 69 -57
129 -75 l40 -12 5 -779 c3 -428 4 -1003 2 -1277 l-3 -497 -38 -24 c-67 -43
-71 -61 -71 -350 0 -212 -2 -256 -14 -256 -8 0 -28 -16 -45 -35 l-31 -36 0
-137 c0 -90 5 -146 13 -162 14 -29 111 -90 142 -90 43 0 45 -11 45 -284 l0
-259 -247 6 c-137 4 -354 11 -483 17 -489 20 -758 31 -1155 45 -225 9 -581 22
-790 30 -435 17 -634 24 -790 30 -145 5 -600 22 -900 35 -132 5 -316 12 -410
15 -93 3 -271 10 -395 15 -124 6 -409 17 -635 25 -225 8 -520 20 -655 26
l-245 11 -270 -92 c-148 -50 -301 -102 -340 -115 -90 -31 -651 -223 -820 -281
-71 -25 -224 -77 -340 -116 -115 -39 -334 -113 -485 -165 -501 -171 -491 -168
-501 -152 -5 8 -9 30 -9 51 l0 36 -52 -29 c-29 -16 -61 -29 -70 -29 -17 0 -18
-19 -18 -250 l0 -250 38 0 c20 0 52 -4 70 -9 l32 -10 0 47 c0 26 4 53 8 60 7
10 48 11 208 2 109 -6 294 -15 409 -20 116 -6 336 -17 490 -25 154 -8 375 -19
490 -25 116 -5 435 -21 710 -35 275 -14 631 -32 790 -40 160 -8 335 -17 390
-20 55 -3 282 -15 505 -26 671 -32 799 -39 1195 -59 209 -11 439 -22 510 -25
72 -3 191 -10 265 -15 174 -12 501 -29 705 -35 88 -3 210 -10 270 -15 61 -6
144 -10 186 -10 42 0 104 -3 138 -6 68 -8 74 -17 42 -63 -10 -14 -37 -60 -59
-101 -22 -41 -62 -112 -91 -157 -28 -46 -51 -84 -51 -87 0 -2 -48 -84 -106
-182 -58 -99 -114 -195 -123 -214 -10 -19 -92 -162 -184 -318 -92 -156 -167
-285 -167 -287 0 -2 -33 -59 -73 -127 -40 -68 -124 -211 -187 -318 -156 -269
-140 -250 -209 -250 -31 0 -64 -6 -73 -13 -21 -16 -72 -96 -288 -452 -100
-165 -189 -308 -198 -317 -10 -10 -44 -23 -77 -29 -117 -21 -245 -101 -296
-187 -36 -59 -125 -195 -228 -352 -53 -80 -98 -149 -101 -155 -7 -14 -49 -78
-165 -255 -187 -283 -235 -361 -235 -378 0 -47 94 -241 174 -361 l54 -82 -387
-517 c-212 -284 -407 -545 -431 -579 -25 -34 -48 -62 -52 -62 -4 -1 -38 41
-76 92 -81 107 -132 157 -222 219 -127 87 -238 121 -446 138 -330 26 -691 -3
-949 -77 -283 -81 -438 -232 -582 -568 -67 -156 -95 -253 -138 -475 -53 -279
-65 -403 -65 -710 0 -585 118 -1093 328 -1413 65 -101 182 -213 257 -248 60
-28 81 -33 310 -70 136 -21 533 -27 640 -9 33 6 85 13 115 15 69 5 314 50 395
72 33 9 74 25 90 35 17 10 50 28 75 40 59 29 192 163 258 260 70 103 162 290
202 411 17 53 36 97 40 97 5 0 11 -15 14 -32 3 -18 11 -67 17 -108 17 -114 66
-321 98 -415 153 -459 375 -757 631 -851 25 -9 86 -22 135 -30 50 -7 135 -21
190 -31 147 -25 739 -26 945 0 176 21 353 50 480 78 244 54 411 163 570 374
315 416 471 959 472 1646 0 257 -30 537 -72 679 -22 76 -17 88 81 203 42 49
831 1033 873 1087 6 8 30 28 54 43 l42 27 0 150 c0 86 4 151 10 155 5 3 566 6
1246 6 l1237 -1 33 -35 32 -36 431 2 c351 1 435 -2 458 -13 79 -40 209 -113
214 -121 4 -5 0 -35 -8 -66 -9 -32 -13 -74 -9 -99 3 -24 0 -65 -8 -95 -19 -69
-60 -213 -90 -312 -13 -44 -32 -107 -41 -140 -9 -33 -21 -71 -25 -85 -5 -14
-18 -63 -30 -110 -12 -47 -30 -110 -40 -140 -10 -30 -26 -81 -34 -113 -9 -32
-21 -55 -25 -53 -5 3 -42 74 -84 158 -151 306 -366 595 -545 731 -101 77 -250
156 -371 197 -183 61 -491 87 -930 77 -778 -18 -1292 -163 -1522 -429 -82 -94
-97 -113 -155 -199 -89 -132 -235 -452 -274 -604 -5 -16 -18 -61 -30 -100 -48
-159 -105 -457 -129 -680 -75 -686 -7 -1414 182 -1963 69 -198 175 -423 251
-532 202 -290 384 -424 621 -456 50 -7 131 -19 180 -27 50 -9 126 -18 170 -22
232 -19 102 -33 -317 -34 l-337 -1 49 -50 c28 -27 50 -54 50 -60 0 -7 304 -10
980 -10 l979 0 17 33 c9 17 28 44 42 60 l26 27 -295 1 c-421 1 -504 15 -224
38 192 15 457 55 655 97 273 58 468 182 656 415 171 213 314 481 410 769 8 25
19 54 23 65 41 99 141 622 141 737 0 20 6 43 14 51 8 8 26 54 40 103 14 49 37
127 51 174 26 86 47 156 111 375 20 66 38 122 40 125 10 10 22 -24 27 -80 14
-130 97 -391 169 -533 80 -159 229 -323 338 -375 130 -61 504 -98 823 -81 210
10 421 36 597 73 401 83 708 571 767 1218 14 149 9 434 -10 548 -47 283 -154
542 -309 752 -145 195 -265 289 -451 351 -124 42 -225 51 -542 51 -246 0 -313
-3 -440 -22 -155 -23 -258 -48 -313 -76 -30 -16 -87 -23 -67 -8 20 14 45 88
70 207 47 219 78 345 89 354 6 5 285 13 621 19 l609 10 281 -80 c154 -43 384
-108 510 -144 127 -35 250 -70 275 -78 25 -7 170 -48 322 -91 227 -65 278 -82
286 -99 5 -12 24 -79 42 -151 32 -126 56 -175 86 -175 25 0 16 59 124 -772 54
-421 60 -485 60 -648 0 -205 10 -319 46 -504 46 -236 144 -486 255 -655 62
-93 192 -220 275 -269 113 -66 263 -96 598 -122 283 -22 618 -3 1056 60 127
19 230 49 329 98 79 39 112 64 201 148 250 240 408 572 464 972 78 558 -30
1030 -327 1427 -88 118 -244 273 -313 310 -27 14 -67 37 -89 50 -51 31 -237
90 -335 107 -122 20 -803 16 -955 -5 -201 -29 -335 -57 -449 -94 -67 -21 -112
-31 -118 -25 -17 17 -128 215 -128 229 0 8 5 23 10 34 13 24 -1 53 -79 156
-133 178 -201 273 -201 281 0 10 221 22 402 22 201 0 198 -4 198 246 0 149 3
194 13 194 6 -1 41 -23 77 -50 105 -81 270 -158 405 -190 28 -6 103 -18 168
-25 112 -12 124 -16 230 -69 197 -98 344 -132 532 -123 273 13 495 110 688
300 55 53 108 97 118 97 10 0 112 -27 227 -60 116 -33 219 -60 230 -60 12 0
23 -4 27 -9 3 -5 20 -13 38 -16 17 -4 59 -15 92 -25 33 -10 125 -36 205 -58
468 -130 827 -235 837 -246 12 -11 31 -75 84 -286 22 -86 49 -130 80 -130 30
0 38 -25 58 -181 10 -85 45 -352 76 -594 52 -399 57 -445 46 -495 -183 -838
14 -1753 475 -2202 119 -117 248 -193 385 -228 41 -11 92 -20 115 -20 22 0 65
-4 95 -10 185 -33 343 -43 674 -44 327 0 404 4 735 40 138 15 376 48 464 65
60 11 217 64 271 92 259 130 539 458 679 797 69 165 137 419 161 597 4 29 11
55 16 59 10 6 11 -9 9 -353 -1 -139 2 -253 5 -253 19 0 107 90 117 120 6 19
25 57 42 85 l31 50 0 175 c-1 166 -3 185 -42 375 -59 280 -62 302 -72 563 -9
224 -10 234 -35 277 -15 24 -31 47 -37 50 -7 5 -10 -62 -9 -217 2 -302 2 -314
-9 -302 -5 5 -19 60 -31 122 -29 152 -52 234 -107 371 -109 279 -270 513 -506
738 -177 169 -403 280 -672 328 -150 27 -604 40 -918 27 -156 -7 -322 -17
-368 -23 -160 -20 -401 -60 -472 -79 -99 -27 -103 -26 -130 22 -251 441 -230
399 -216 440 9 27 9 44 2 61 -11 24 -72 110 -243 342 -83 112 -109 155 -105
170 4 11 9 40 12 65 8 74 5 76 -312 166 -271 77 -510 144 -660 185 -162 44
-273 76 -345 99 -14 4 -68 20 -120 34 -316 87 -669 188 -692 197 -19 8 -29 21
-33 42 -4 18 -22 73 -40 122 -93 245 -316 469 -565 571 -96 39 -197 99 -249
149 -392 376 -1035 405 -1459 67 -23 -18 -47 -32 -53 -30 -7 2 -10 197 -9 614
l1 610 -24 22 c-18 17 -41 23 -107 29 -96 9 -91 0 -65 113 15 63 18 140 22
480 2 223 7 408 12 413 4 4 45 12 92 17 46 5 143 18 214 29 314 49 434 59 477
42 13 -6 145 -49 293 -96 149 -48 302 -97 340 -111 72 -25 140 -47 420 -135
88 -27 176 -56 195 -64 19 -8 106 -37 193 -66 144 -47 158 -53 163 -77 33
-154 106 -284 212 -382 107 -99 177 -132 445 -211 44 -12 81 -28 84 -34 3 -11
-65 -111 -146 -216 -40 -52 -41 -49 87 -246 106 -163 178 -275 192 -298 212
-344 340 -533 368 -543 29 -11 314 -105 967 -317 231 -75 473 -154 539 -176
65 -22 126 -37 135 -34 15 5 468 565 500 619 13 21 13 30 -1 72 -16 48 -107
311 -127 369 -6 17 -45 134 -87 261 -60 183 -80 234 -97 243 -37 18 -301 101
-324 101 -15 0 -45 -29 -103 -102 -46 -56 -95 -115 -111 -132 -16 -17 -29 -34
-29 -38 0 -4 -9 -12 -20 -18 -17 -9 -69 5 -280 75 -169 56 -260 91 -260 100 0
7 9 24 20 37 18 21 208 277 268 361 15 21 54 73 87 116 33 43 112 148 175 234
85 115 121 157 136 157 25 0 640 -215 669 -234 12 -8 32 -49 52 -107 17 -52
62 -179 98 -284 37 -104 76 -217 87 -250 11 -33 26 -65 32 -71 6 -6 98 -41
204 -78 148 -52 196 -65 207 -56 7 6 59 75 116 153 138 191 211 291 305 420
43 59 85 116 92 126 11 16 1 53 -68 257 -44 131 -86 252 -95 267 -8 16 -15 34
-15 42 0 25 -92 290 -107 307 -8 9 -27 19 -41 23 -27 6 -198 59 -567 177 -202
64 -266 84 -550 173 -99 31 -234 74 -300 95 -285 93 -670 210 -691 210 -14 0
-29 -11 -41 -29 -64 -102 -417 -581 -427 -581 -7 0 -148 45 -312 101 -449 151
-447 150 -560 156 -167 9 -295 -28 -439 -127 -65 -43 -76 -48 -101 -39 -110
37 -259 81 -289 86 -26 4 -35 10 -33 22 3 12 22 18 87 23 46 4 87 11 92 15 9
9 16 339 7 348 -3 3 -72 22 -154 41 -82 19 -266 65 -409 101 -143 36 -316 78
-385 94 -69 16 -206 49 -305 74 -99 24 -337 83 -530 130 l-350 86 -65 64 c-40
40 -88 75 -125 92 -60 28 -60 28 -335 33 l-275 6 -187 47 c-204 51 -250 59
-503 82 -93 9 -204 20 -245 25 -41 5 -145 17 -230 25 -85 8 -195 20 -245 25
-49 6 -155 17 -235 25 -233 24 -340 35 -425 45 -44 5 -118 12 -165 16 -47 4
-95 11 -107 15 l-23 9 0 399 c0 238 4 402 9 406 6 3 47 10 93 15 361 44 568
135 568 248 0 20 -8 49 -18 64 -19 29 -65 68 -80 68 -5 0 -16 8 -25 18 -15 16
-17 47 -17 223 0 213 3 229 43 229 10 0 40 9 66 20 81 35 81 37 81 358 l0 281
53 28 52 28 3 155 c4 193 -2 217 -77 290 -110 107 -335 193 -657 249 -56 10
-107 21 -113 25 -8 5 -11 124 -11 411 l0 404 64 31 c75 37 132 90 141 131 4
16 7 97 8 180 2 168 -4 155 81 185 43 15 107 68 161 134 43 53 94 195 95 267
0 17 4 34 10 38 8 5 164 -22 320 -54 165 -35 233 -45 295 -45 80 0 54 -11 430
183 394 203 405 211 444 316 21 55 21 64 21 1335 0 1266 0 1280 -21 1334 -24
66 -92 137 -152 159 -23 9 -253 64 -512 122 -258 58 -517 117 -575 130 -58 14
-197 45 -310 70 -241 54 -388 87 -680 155 -356 83 -758 173 -1685 380 -397 88
-495 110 -580 130 -22 5 -55 12 -72 15 -18 4 -33 11 -33 16 0 5 114 10 273 10
188 1 251 4 205 9 -37 5 -93 20 -124 34 l-56 26 -343 0 -342 0 -39 -35z m306
-1565 l0 -1361 -67 -30 c-38 -17 -88 -39 -113 -49 -47 -19 -99 -41 -439 -184
-112 -47 -210 -86 -218 -86 -11 0 -13 203 -11 1295 l3 1295 25 24 c14 13 176
110 361 214 185 104 353 201 375 215 21 14 49 26 62 26 l22 1 0 -1360z m250
1330 c19 -4 89 -19 155 -34 66 -15 161 -36 210 -46 125 -27 661 -148 710 -160
51 -12 119 -28 395 -89 124 -28 333 -75 465 -106 132 -31 330 -76 440 -101
110 -24 250 -56 310 -70 159 -37 203 -47 480 -109 138 -31 288 -65 335 -76
119 -28 141 -32 457 -103 155 -35 297 -72 315 -83 18 -10 41 -34 50 -53 17
-33 18 -115 18 -1278 0 -1030 -2 -1244 -13 -1248 -8 -3 -47 2 -88 11 -41 8
-200 40 -354 70 -154 31 -298 60 -320 65 -22 5 -200 42 -395 81 -195 39 -634
127 -975 196 -341 69 -642 129 -670 133 -27 5 -250 49 -495 99 -245 50 -593
121 -775 157 -181 37 -336 71 -342 77 -10 7 -13 288 -13 1342 0 732 3 1335 7
1339 4 4 19 4 33 0 14 -4 41 -10 60 -14z m160 -2885 c255 -52 421 -85 610
-120 41 -8 129 -26 195 -40 105 -22 520 -104 675 -134 50 -9 527 -111 610
-131 54 -12 1032 -210 1145 -231 55 -10 199 -39 320 -64 121 -25 276 -56 345
-69 69 -12 124 -26 122 -29 -2 -5 -299 -161 -517 -271 -47 -23 -89 -25 -165
-8 -54 12 -133 27 -275 53 -38 7 -108 20 -155 29 l-85 17 -13 44 c-44 143
-102 232 -189 286 -43 27 -97 40 -480 117 -237 47 -446 86 -463 86 -17 0 -47
7 -67 15 -37 16 -48 18 -263 54 -69 12 -204 37 -300 57 -153 31 -181 34 -220
24 -99 -25 -196 -106 -242 -202 -13 -27 -30 -48 -38 -48 -8 0 -71 12 -140 25
-69 14 -137 25 -153 25 -15 0 -35 4 -45 9 -17 9 -106 27 -372 76 -80 15 -255
49 -390 75 -135 26 -299 55 -365 65 -66 9 -126 19 -132 21 -24 6 -13 23 20 32
41 12 418 168 642 267 44 19 87 33 95 30 8 -2 139 -29 290 -60z m1309 -561
c41 -8 76 -15 77 -17 2 -1 12 -48 23 -104 34 -166 25 -326 -18 -307 -9 4 -49
9 -88 12 l-73 4 0 135 c0 130 -17 243 -41 268 -20 20 -10 37 19 30 15 -4 60
-13 101 -21z m346 -70 c66 -13 135 -24 153 -24 18 0 41 -4 51 -10 10 -5 99
-25 197 -45 98 -19 184 -41 191 -48 28 -29 61 -320 39 -355 -5 -8 -25 7 -61
47 -113 122 -300 170 -435 112 -36 -16 -84 -25 -144 -30 -81 -5 -92 -8 -102
-29 -11 -23 -12 -22 -18 13 -4 20 -4 60 -1 89 7 57 -11 240 -27 269 -13 26 -2
51 19 42 10 -3 72 -17 138 -31z m809 -160 c33 -7 71 -21 85 -32 80 -59 135
-305 89 -395 -8 -17 -12 -17 -26 -4 -9 8 -48 20 -87 27 -38 7 -76 17 -82 22
-7 6 -22 8 -33 5 -11 -3 -20 -2 -21 1 0 4 -1 77 -3 162 -1 93 -7 167 -15 184
-15 37 -7 61 17 51 9 -5 44 -14 76 -21z m-4486 -76 c13 -13 17 -147 5 -149
-32 -6 -90 -5 -98 2 -6 4 -9 32 -8 61 1 29 2 61 3 70 0 26 76 38 98 16z m4042
-338 c15 -8 70 -99 70 -116 0 -14 -20 0 -25 19 -15 46 -55 87 -86 87 -16 0
-29 -5 -29 -12 0 -7 -32 -31 -70 -53 -38 -22 -73 -47 -76 -55 -10 -23 -4 -262
7 -282 8 -16 24 -18 111 -18 56 0 99 -3 95 -6 -3 -4 -100 -6 -214 -5 -366 2
-648 -32 -770 -91 -13 -6 -26 -9 -29 -5 -5 4 -8 251 -4 341 0 4 11 5 25 2 200
-50 364 -46 544 13 120 40 325 134 371 171 28 22 52 25 80 10z m-3936 -199 c3
-5 6 -447 6 -982 1 -1727 1 -1686 -12 -1691 -7 -3 -59 -2 -116 2 -106 6 -136
18 -111 43 21 21 15 1077 -6 1077 -19 0 -29 -58 -16 -92 7 -19 6 -31 -3 -44
-23 -31 -39 16 -31 89 4 34 10 377 14 762 l6 700 3 -672 c2 -651 6 -743 32
-717 7 7 14 1066 10 1482 0 18 -27 15 -34 -4 -3 -9 -7 -30 -7 -47 -1 -25 -3
-21 -10 17 -8 53 -4 70 15 63 6 -3 20 1 31 9 21 16 220 20 229 5z m3816 -639
c47 -6 106 -13 133 -17 l47 -8 -1 -41 -1 -41 -13 30 c-19 43 -109 64 -128 29
-9 -16 -11 -15 -26 4 -11 15 -29 22 -60 24 -44 3 -45 2 -52 -32 -4 -19 -3 -42
2 -52 5 -10 6 -55 1 -110 -9 -101 -7 -108 41 -108 15 0 27 -4 27 -9 0 -4 -12
-7 -27 -6 -16 1 -86 3 -156 3 -83 1 -126 6 -122 12 3 6 32 11 63 11 l57 2 -50
7 c-68 11 -285 11 -310 0 -13 -6 20 -9 93 -9 71 -1 112 -5 112 -11 0 -7 -43
-10 -124 -9 -68 1 -128 -1 -134 -4 -23 -15 -32 25 -34 162 -2 117 0 144 12
150 17 9 116 29 170 35 62 6 392 -2 480 -12z m-65 -524 c6 -4 8 -70 5 -170
l-5 -163 -235 3 c-129 2 -311 -1 -405 -7 -166 -10 -196 -7 -180 20 5 6 9 60
11 118 2 84 -1 110 -13 123 -13 15 -12 18 14 31 24 12 158 37 273 51 52 6 524
1 535 -6z m225 -523 c349 -38 592 -95 765 -179 118 -57 129 -70 135 -158 3
-38 3 -74 0 -79 -4 -5 -24 0 -47 11 -65 31 -251 83 -277 76 -42 -10 -45 -37
-45 -363 l0 -308 -68 3 c-37 2 -69 5 -71 7 -2 1 -3 151 -2 332 0 182 -2 338
-6 347 -10 25 -42 35 -168 51 -253 32 -519 44 -533 23 -4 -7 -10 -173 -13
-368 l-5 -355 -103 0 c-59 0 -107 4 -110 10 -3 5 -6 166 -7 356 0 290 -3 349
-15 364 -14 16 -33 17 -247 13 -224 -6 -233 -5 -233 13 0 11 4 19 10 19 11 0
8 136 -4 162 -6 13 -2 19 16 23 115 28 779 28 1028 0z m-1310 -54 c0 -10 -49
-21 -96 -21 -19 0 -34 -4 -34 -10 0 -5 -12 -10 -27 -10 -15 0 -40 -4 -57 -9
-17 -5 -60 -17 -96 -27 -64 -17 -267 -109 -303 -138 -16 -12 -18 -29 -16 -130
1 -65 -1 -120 -5 -123 -7 -7 -7 -14 -7 129 0 106 1 114 26 145 14 18 34 33 43
33 9 0 28 9 42 20 14 11 34 20 45 20 11 0 29 7 39 15 29 22 242 85 286 85 14
0 30 4 36 9 8 9 24 11 107 19 9 1 17 -2 17 -7z m-2640 -1107 c39 -8 73 -20 76
-26 12 -19 10 -399 -2 -409 -6 -5 -25 -5 -45 1 -18 6 -86 10 -149 11 -128 0
-154 6 -140 29 5 8 10 95 10 192 l0 178 -56 -4 c-39 -3 -63 -11 -78 -25 -28
-26 -36 -26 -36 -1 0 20 54 41 115 44 17 1 39 7 50 14 29 17 174 15 255 -4z
m4025 -65 c88 -5 201 -16 250 -24 50 -8 129 -17 178 -21 48 -4 90 -11 93 -16
7 -11 6 -379 -1 -386 -2 -3 -33 1 -67 8 -248 50 -801 85 -1251 78 -226 -3
-312 -2 -324 7 -14 10 -14 12 -1 18 13 4 15 29 14 149 l-1 143 -130 5 -130 5
86 9 c48 4 95 5 106 2 11 -3 34 1 52 10 63 31 727 39 1126 13z m-265 -710
c162 -22 228 -35 244 -48 14 -12 16 -60 16 -489 l0 -475 -67 7 c-38 4 -102 9
-143 12 -41 3 -109 9 -150 13 -41 5 -120 14 -175 21 -55 6 -125 16 -155 21
-30 5 -93 14 -140 20 -47 6 -87 13 -90 15 -3 3 29 5 70 4 41 -1 81 -1 88 -1
16 1 18 851 2 881 -14 26 3 30 175 33 156 2 229 -1 325 -14z m-3806 -25 l26
-6 -2 -357 -3 -356 -66 -3 c-37 -2 -88 1 -114 5 l-47 8 -1 340 c-2 295 -4 340
-17 340 -13 0 -15 -44 -15 -333 0 -215 -4 -332 -10 -332 -6 0 -10 120 -10 340
l0 340 25 1 c14 0 34 4 45 8 25 10 155 14 189 5z m-6609 -629 c220 -8 513 -19
650 -25 138 -5 432 -17 655 -25 223 -8 522 -20 665 -25 387 -15 1013 -39 1330
-50 154 -5 318 -12 365 -15 47 -3 213 -10 370 -15 157 -6 402 -15 545 -20 143
-6 382 -15 530 -20 149 -6 374 -15 500 -20 127 -5 361 -14 520 -20 160 -6 457
-17 660 -25 204 -8 557 -22 785 -30 228 -8 528 -19 665 -25 138 -5 356 -14
485 -20 129 -5 366 -23 525 -40 160 -17 443 -46 630 -65 187 -19 381 -39 430
-45 50 -5 158 -16 240 -25 83 -8 191 -20 240 -25 149 -17 633 -68 900 -95 138
-14 333 -34 435 -44 102 -11 280 -29 395 -41 213 -22 402 -53 420 -71 6 -6 3
-15 -8 -26 -14 -15 -24 -15 -80 -5 -69 13 -235 31 -582 62 -121 11 -263 25
-315 30 -52 6 -212 22 -355 35 -143 14 -305 30 -360 35 -102 10 -492 48 -780
75 -88 9 -250 24 -360 35 -351 34 -823 79 -1045 100 -118 11 -345 24 -505 30
-575 20 -1355 50 -1580 59 -126 6 -309 13 -405 16 -96 3 -339 12 -540 20 -341
14 -491 19 -1165 45 -293 11 -617 23 -1165 45 -206 8 -499 19 -650 25 -151 5
-441 17 -645 25 -203 8 -503 19 -665 25 -162 6 -403 15 -535 20 -338 14 -1275
49 -1490 56 l-180 5 -115 -41 c-63 -22 -155 -54 -205 -70 -49 -16 -124 -41
-165 -55 -41 -15 -88 -31 -105 -35 -16 -5 -210 -70 -430 -145 -220 -74 -553
-187 -740 -249 -187 -63 -461 -155 -609 -206 -149 -50 -276 -88 -283 -85 -10
3 -13 18 -11 47 l3 41 95 34 c52 18 241 83 420 143 179 60 386 130 460 156 74
25 299 102 500 171 201 68 457 155 570 194 113 39 273 93 355 121 83 27 157
54 165 59 21 12 107 11 565 -6z m260 -189 c220 -9 528 -20 685 -26 157 -6 454
-17 660 -25 206 -8 497 -19 645 -25 477 -18 1033 -39 1295 -50 140 -6 431 -17
645 -25 215 -8 503 -19 640 -25 138 -5 444 -17 680 -25 237 -8 529 -19 650
-25 121 -5 425 -17 675 -25 250 -8 518 -19 595 -25 77 -5 213 -13 303 -16 287
-12 173 -20 -221 -16 -325 3 -708 -6 -967 -23 -36 -2 -238 -11 -450 -20 -212
-8 -515 -22 -675 -30 -159 -8 -366 -17 -460 -20 -93 -3 -197 -7 -230 -10 -33
-2 -125 -7 -205 -10 -80 -3 -228 -10 -330 -15 -102 -6 -342 -17 -535 -26 -192
-8 -375 -17 -405 -19 -30 -2 -143 -6 -250 -9 -107 -4 -280 -11 -385 -16 -277
-15 -554 -28 -950 -45 -192 -8 -438 -20 -545 -25 -107 -6 -330 -15 -495 -21
-209 -7 -311 -14 -336 -24 -27 -10 -47 -11 -79 -4 -24 5 -61 7 -84 5 -23 -3
-126 -8 -231 -12 -127 -4 -204 -11 -234 -21 -34 -12 -49 -12 -69 -3 -17 7 -64
9 -141 6 -64 -3 -215 -11 -336 -16 -121 -6 -317 -15 -435 -20 -118 -5 -323
-15 -455 -21 -132 -7 -274 -13 -315 -14 -445 -12 -610 -28 -635 -62 -8 -10
-22 -12 -53 -7 -54 8 -53 20 1 34 23 7 56 18 72 25 17 7 98 34 180 60 83 26
218 72 301 101 83 30 157 54 165 54 8 0 19 4 24 9 6 4 28 13 50 19 22 6 294
97 605 202 311 105 579 195 595 200 17 5 91 30 165 56 74 26 148 50 163 53 15
3 92 3 170 -1 78 -4 322 -14 542 -22z m8900 -355 c55 -6 152 -15 215 -21 63
-6 158 -15 210 -21 52 -5 145 -14 205 -19 61 -5 247 -22 415 -39 512 -51 605
-60 875 -86 364 -35 450 -43 615 -60 80 -8 244 -24 365 -35 319 -29 318 -29
309 -49 -4 -9 -8 -34 -8 -56 l-1 -40 -60 3 c-33 1 -134 9 -225 17 -91 8 -217
19 -280 25 -266 23 -473 41 -590 50 -69 6 -197 17 -285 25 -88 8 -216 19 -285
25 -69 6 -172 15 -230 20 -58 6 -161 15 -230 20 -69 5 -197 16 -285 25 -88 8
-223 19 -300 25 -77 6 -185 15 -240 20 -55 6 -145 13 -200 16 -55 4 -106 11
-112 17 -9 6 -11 22 -7 48 4 21 2 51 -4 68 -11 32 -6 43 17 37 9 -2 61 -9 116
-15z m-295 -1237 l0 -1125 -187 8 c-262 11 -391 8 -517 -11 -60 -9 -144 -19
-185 -22 l-76 -6 -19 34 c-104 183 -150 306 -182 487 -22 126 -24 158 -24 501
0 345 4 418 31 530 40 166 151 347 289 470 121 109 227 170 370 214 121 36
175 44 348 45 l152 1 0 -1126z m-935 1026 c3 -5 -24 -38 -61 -72 -162 -152
-284 -375 -331 -603 -16 -78 -18 -142 -18 -490 0 -344 3 -413 18 -495 39 -205
104 -393 176 -511 36 -57 37 -69 14 -97 -19 -21 -31 -23 -393 -67 -63 -7 -279
-35 -479 -60 -302 -39 -366 -44 -376 -33 -7 7 -37 67 -68 133 -31 66 -77 165
-102 220 -26 55 -62 132 -80 170 -18 39 -54 115 -80 170 -25 55 -60 129 -77
165 -17 36 -52 110 -78 165 -26 55 -54 116 -63 135 -8 19 -34 78 -57 130 -23
52 -57 122 -75 155 -19 33 -55 109 -80 170 -26 60 -85 187 -131 282 -46 95
-84 177 -84 182 0 5 26 11 58 15 31 3 84 10 117 15 159 25 622 93 720 106 61
8 173 24 250 35 249 38 815 119 1000 145 99 14 196 29 215 34 49 12 58 12 65
1z m5816 -121 c47 -23 103 -82 141 -147 62 -109 102 -326 79 -433 -52 -241
-68 -281 -147 -374 -60 -71 -93 -87 -190 -91 -74 -3 -95 7 -72 33 27 30 85
154 106 228 48 162 52 353 11 511 -22 88 -75 207 -113 257 -14 19 -23 36 -20
39 12 12 170 -5 205 -23z m-4286 -19 c61 -6 189 -17 285 -25 238 -19 609 -51
875 -75 121 -11 351 -31 510 -45 160 -13 344 -29 410 -35 66 -6 167 -15 225
-20 58 -5 143 -14 190 -20 47 -7 107 -15 134 -19 27 -3 51 -12 54 -18 5 -16
-40 -17 -55 -2 -6 6 -20 8 -31 4 -21 -6 -21 -10 -21 -600 l0 -594 -35 -66
c-20 -36 -36 -76 -36 -89 0 -13 -7 -30 -16 -37 -9 -7 -20 -22 -26 -34 -9 -21
-25 -47 -95 -164 -24 -38 -43 -74 -43 -80 0 -19 -40 -32 -87 -27 -27 3 -95 8
-153 11 -58 3 -208 12 -335 20 -126 8 -320 19 -430 25 -110 6 -234 13 -275 16
-233 16 -526 31 -537 27 -8 -3 -34 2 -59 12 -38 14 -85 18 -257 20 -217 2
-387 13 -406 24 -14 9 -20 1799 -6 1805 10 5 34 3 220 -14z m-11550 -91 c5 -5
98 -9 207 -9 125 0 198 -4 198 -10 0 -6 73 -10 199 -10 176 0 239 -7 198 -23
-16 -6 -364 9 -398 18 -14 3 -88 8 -165 9 -216 4 -623 29 -618 37 6 11 367 -1
379 -12z m7358 -18 c10 -7 17 -19 17 -25 0 -6 30 -72 67 -146 36 -74 70 -144
74 -155 4 -11 42 -90 83 -177 42 -86 76 -159 76 -163 0 -12 102 -224 153 -320
34 -62 77 -158 77 -170 0 -7 29 -71 65 -141 36 -71 79 -158 95 -194 16 -37 65
-141 109 -233 45 -92 81 -169 81 -171 0 -2 30 -66 66 -142 37 -77 113 -240
171 -364 57 -124 113 -240 124 -259 30 -52 21 -61 -43 -43 -39 12 -105 16
-247 18 l-195 2 -26 48 c-14 27 -61 117 -104 199 -43 83 -91 173 -106 200 -51
94 -107 200 -210 400 -57 110 -116 222 -132 248 -15 26 -28 53 -28 58 0 6 -19
45 -41 87 -23 42 -64 120 -92 172 -27 52 -71 136 -97 185 -26 50 -69 131 -95
180 -101 190 -128 241 -145 265 -9 14 -36 63 -60 110 -65 131 -251 483 -267
505 -29 42 -27 43 300 41 250 -1 317 -4 330 -15z m7392 -22 c55 -12 104 -25
109 -30 5 -5 3 -26 -6 -51 -27 -72 -38 -157 -39 -288 -1 -123 19 -248 43 -277
13 -16 3 -45 -34 -99 -31 -47 -84 -139 -150 -261 -22 -40 -42 -73 -46 -73 -9
0 -16 1075 -7 1089 8 15 14 14 130 -10z m-13347 -30 c5 -14 56 -11 88 6 25 13
31 13 51 0 14 -9 47 -15 86 -15 108 0 279 -13 267 -20 -14 -9 -363 -2 -475 10
-49 5 -182 12 -295 16 -113 4 -195 10 -182 13 37 10 457 1 460 -10z m4916 -90
c-20 -35 -48 -86 -63 -114 l-26 -50 -180 3 c-99 1 -234 7 -300 12 -66 5 -204
12 -306 16 -186 7 -230 14 -199 34 17 10 130 2 145 -11 5 -5 106 -9 225 -9
120 0 243 -5 276 -11 80 -16 288 -16 317 0 12 6 35 35 50 64 45 85 90 153 94
141 2 -6 -13 -40 -33 -75z m10356 -39 c245 -61 481 -119 525 -131 44 -12 127
-32 185 -46 166 -40 580 -143 638 -160 51 -14 52 -15 52 -52 0 -21 -6 -43 -12
-48 -7 -6 -49 -13 -93 -17 -92 -8 -275 -35 -286 -42 -8 -5 -138 34 -234 70
-33 13 -94 33 -135 45 -136 41 -392 122 -590 186 -107 35 -262 84 -345 110
-82 26 -156 54 -162 63 -7 9 -13 27 -13 41 0 14 -7 39 -15 55 -18 34 -11 50
19 42 11 -4 221 -56 466 -116z m-10090 86 c0 -7 12 -35 26 -62 52 -99 72 -140
85 -174 7 -19 24 -53 37 -74 14 -22 31 -53 39 -70 7 -17 22 -44 33 -61 11 -16
30 -50 44 -75 13 -25 45 -83 71 -130 25 -47 67 -128 92 -180 56 -119 86 -179
127 -255 41 -77 58 -109 86 -165 13 -25 35 -63 50 -85 15 -22 73 -130 130
-240 57 -110 112 -216 123 -235 11 -19 47 -87 80 -150 32 -63 75 -144 94 -179
20 -36 62 -117 95 -180 112 -215 150 -286 161 -300 9 -10 7 -17 -8 -27 -10 -8
-25 -14 -32 -14 -29 0 -191 -89 -249 -136 -24 -20 -48 -33 -54 -29 -5 3 -23
34 -39 68 -16 34 -107 220 -201 412 -95 193 -196 400 -225 460 -29 61 -114
235 -189 388 -75 153 -136 283 -136 290 0 7 -7 21 -15 31 -8 11 -15 28 -15 38
0 10 -4 18 -9 18 -5 0 -13 10 -17 23 -5 18 -120 255 -161 332 -6 11 -21 40
-33 65 -29 58 -45 70 -91 70 -29 0 -42 -6 -59 -27 -25 -33 -134 -207 -282
-453 -59 -96 -126 -206 -150 -245 -35 -55 -142 -231 -233 -384 -23 -38 -107
-177 -115 -191 -5 -8 -53 -87 -107 -175 -54 -88 -139 -227 -188 -310 -92 -156
-103 -174 -179 -292 -25 -40 -51 -84 -56 -98 -11 -30 -33 -29 -39 1 -2 10 -8
25 -14 33 -12 14 -35 71 -44 107 -3 13 5 37 20 60 13 22 68 116 122 209 54 94
106 184 116 200 10 17 40 68 67 115 26 47 71 123 99 170 122 208 183 313 183
316 0 1 22 38 48 81 45 72 141 228 162 263 41 69 140 246 162 290 15 30 59
106 98 169 38 63 70 116 70 117 0 7 102 174 110 179 4 3 29 47 55 98 38 77
138 251 175 307 6 8 20 34 32 58 21 40 48 57 48 28z m-3955 -14 c262 -12 275
-13 209 -21 -28 -3 -123 -3 -210 0 -362 15 -661 29 -689 33 -59 6 474 -3 690
-12z m1359 -72 c6 -6 83 -10 201 -10 105 0 195 -4 200 -9 12 -11 481 -19 491
-8 9 9 34 -12 34 -29 0 -17 -46 -19 -56 -3 -4 7 -22 9 -43 6 -34 -4 -105 -1
-571 23 -107 5 -336 16 -508 24 -173 8 -317 18 -320 22 -11 11 560 -4 572 -16z
m11328 -197 c10 -9 18 -24 18 -33 0 -34 -78 -181 -231 -438 -9 -15 -33 -56
-54 -92 -21 -36 -47 -81 -58 -100 -11 -19 -36 -64 -55 -100 -20 -36 -46 -78
-58 -95 -34 -47 -84 -134 -101 -179 -9 -23 -22 -48 -29 -56 -7 -8 -38 -60 -70
-115 -31 -55 -67 -118 -80 -140 -13 -22 -27 -46 -30 -53 -4 -8 -45 -80 -92
-160 -47 -81 -96 -165 -108 -187 -13 -22 -28 -49 -34 -60 -6 -11 -16 -29 -23
-40 -7 -11 -30 -51 -51 -90 -22 -38 -88 -154 -148 -257 -59 -104 -108 -192
-108 -198 0 -15 -36 -12 -50 5 -7 8 -20 15 -30 15 -29 0 -42 23 -26 46 8 10
23 35 33 54 11 19 50 86 87 149 36 62 66 115 66 116 0 1 38 68 85 149 47 81
85 149 85 152 0 3 8 17 19 32 18 27 151 256 209 362 84 152 202 357 214 370
16 18 73 119 128 225 32 63 148 266 271 475 24 41 51 89 59 105 15 31 67 106
95 138 19 21 43 22 67 0z m1036 -54 c53 -17 120 -37 147 -45 28 -8 86 -28 130
-43 44 -16 114 -39 155 -51 41 -11 95 -27 120 -35 230 -70 318 -98 332 -106
26 -13 394 -133 523 -169 17 -5 116 -36 220 -69 105 -33 210 -65 234 -72 23
-7 45 -18 48 -25 2 -6 -7 -28 -21 -48 -14 -21 -28 -46 -31 -57 -7 -20 -34 -25
-51 -10 -5 5 -40 16 -79 26 -38 9 -100 34 -136 55 -37 22 -85 44 -108 49 -48
10 -65 21 -33 21 58 0 68 27 22 60 -22 15 -39 20 -56 16 -21 -6 -27 -3 -31 14
-5 17 -12 21 -42 18 -75 -6 -18 -56 65 -57 37 -1 66 -27 40 -37 -9 -3 -37 -3
-63 1 -27 3 -70 8 -98 9 -73 4 -75 5 -75 19 0 28 -260 113 -312 103 -24 -4
-46 0 -75 14 -23 11 -46 20 -51 20 -5 0 -49 13 -98 29 -49 16 -104 32 -122 36
-19 4 -43 18 -55 31 -11 13 -36 26 -56 30 -20 3 -43 8 -51 12 -8 3 -35 7 -60
7 -25 1 -97 20 -160 42 -241 83 -280 90 -280 48 0 -13 -5 -36 -12 -51 -10 -22
-10 -28 5 -39 17 -12 17 -13 0 -17 -34 -9 -42 1 -26 33 8 16 17 60 19 97 4 59
12 162 13 170 1 4 12 2 109 -29z m4172 -192 c96 -30 306 -97 465 -147 160 -51
468 -148 685 -217 217 -69 423 -134 458 -144 34 -11 62 -24 62 -29 0 -6 -20
-36 -44 -67 -23 -32 -103 -138 -176 -235 -77 -104 -139 -178 -149 -178 -29 0
-165 48 -169 59 -2 6 7 24 20 40 12 16 57 77 98 135 41 59 80 112 87 118 17
13 17 37 1 43 -7 2 -314 103 -683 225 l-670 222 -32 -38 c-17 -22 -90 -120
-162 -219 -71 -99 -173 -238 -225 -310 -52 -71 -128 -175 -168 -230 -40 -55
-76 -104 -81 -110 -10 -12 -128 -176 -160 -222 -58 -84 -283 -391 -300 -410
-24 -27 -17 -48 20 -57 15 -4 316 -102 668 -218 l639 -211 34 39 c19 21 77 92
129 157 52 64 101 117 108 117 19 0 83 -28 90 -39 3 -6 -21 -43 -53 -83 -32
-40 -109 -140 -171 -223 -62 -82 -118 -154 -125 -159 -11 -8 -62 8 -416 134
-238 84 -341 120 -415 145 -38 13 -108 37 -155 54 -47 16 -161 57 -255 90 -93
32 -235 82 -315 111 -80 29 -155 54 -168 57 -36 9 -36 27 0 76 53 71 149 204
230 317 41 58 180 251 308 430 128 179 270 378 316 442 45 64 87 123 93 130 7
7 53 71 104 142 143 200 163 228 198 279 31 45 36 48 69 44 19 -2 114 -29 210
-60z m-1645 -294 c0 -18 16 -29 60 -43 22 -7 63 -24 90 -37 28 -13 77 -35 110
-47 33 -13 85 -35 115 -50 30 -15 84 -39 120 -53 36 -15 85 -37 109 -50 24
-12 55 -23 68 -23 36 0 39 -26 7 -64 -16 -19 -39 -49 -52 -68 -49 -71 -123
-168 -129 -168 -4 0 -14 6 -22 13 -9 8 -52 28 -96 46 -270 111 -398 165 -428
182 -9 5 -43 19 -75 31 -87 32 -246 99 -259 110 -7 6 -24 8 -38 6 -45 -9 -25
36 44 100 88 83 205 132 306 129 47 -1 70 -6 70 -14z m2240 -253 c215 -72 414
-138 443 -146 28 -8 52 -20 52 -26 0 -5 -13 -27 -30 -48 -16 -21 -30 -43 -30
-49 0 -6 -4 -11 -9 -11 -5 0 -30 -31 -57 -70 -26 -38 -53 -70 -59 -70 -6 0
-62 18 -125 41 -169 60 -235 83 -335 118 -140 49 -130 40 -196 196 -32 77 -65
152 -74 166 -16 28 -10 43 15 35 8 -3 191 -64 405 -136z m-5700 91 l200 -6 0
-410 c0 -368 -2 -419 -19 -493 -11 -46 -25 -86 -33 -89 -7 -3 -136 0 -285 6
-150 6 -315 12 -366 13 -92 1 -93 1 -127 -32 l-34 -33 -68 9 -68 9 -3 38 c-3
30 6 53 37 108 23 39 41 73 41 75 0 3 8 17 19 32 10 15 51 86 91 157 40 72 96
168 125 215 29 47 80 137 115 200 105 192 127 223 153 215 12 -4 112 -10 222
-14z m5149 -109 c27 -64 62 -147 78 -184 l28 -67 -176 -238 c-97 -131 -198
-266 -223 -301 -25 -34 -86 -116 -136 -182 -49 -66 -110 -147 -135 -180 -24
-33 -47 -60 -50 -60 -16 -1 -330 105 -330 112 0 4 28 46 63 93 34 48 76 105
92 128 39 54 360 496 539 739 75 103 146 203 157 223 12 19 26 35 32 35 7 0
34 -53 61 -118z m1756 -129 c0 -10 8 -38 17 -63 9 -25 51 -148 93 -275 l77
-230 -63 -90 c-51 -72 -182 -254 -266 -369 -17 -23 -48 -16 -48 10 0 26 -130
423 -141 430 -5 3 -9 17 -9 31 0 14 -7 46 -17 72 l-16 47 156 207 c86 114 161
216 167 227 13 25 50 27 50 3z m-15502 -351 c11 -26 91 -191 177 -365 86 -175
155 -324 152 -331 -3 -8 -39 -17 -94 -24 -48 -6 -162 -20 -253 -31 -191 -24
-272 -35 -427 -57 -120 -16 -144 -13 -120 14 8 10 92 145 187 302 202 333 268
441 293 478 9 15 20 35 23 45 12 33 41 19 62 -31z m14915 -120 c26 -10 51 -22
56 -28 4 -5 43 -117 85 -249 42 -132 85 -262 96 -289 11 -27 17 -52 14 -55 -3
-3 -30 4 -62 14 -51 18 -58 24 -70 60 -8 22 -31 85 -51 140 -20 55 -57 159
-80 230 -24 72 -50 142 -57 157 -8 15 -14 29 -14 33 0 10 36 5 83 -13z
m-10868 -272 c176 -6 345 -12 375 -13 l55 -2 3 -1215 c1 -668 0 -1225 -3
-1238 -5 -22 -7 -22 -58 21 -29 25 -68 52 -87 62 -19 10 -92 55 -161 101 -70
46 -130 84 -133 84 -7 0 -66 39 -76 50 -3 3 -32 23 -65 44 -33 21 -72 47 -87
57 -15 11 -31 19 -36 19 -5 0 -15 7 -23 16 -7 9 -21 13 -34 10 -44 -11 -45 10
-45 1042 0 1011 -1 986 40 977 8 -2 159 -9 335 -15z m1165 -105 c228 -9 577
-22 775 -30 198 -8 540 -22 760 -31 220 -8 401 -17 404 -19 5 -5 0 -14 -67
-130 l-58 -100 -225 3 c-204 3 -230 2 -290 -17 -142 -45 -265 -157 -343 -315
-73 -146 -90 -221 -90 -416 0 -141 3 -177 22 -245 68 -243 218 -422 407 -485
60 -20 81 -21 278 -18 l212 3 75 37 c124 61 246 188 300 314 32 74 60 156 60
176 0 10 11 51 25 91 20 56 24 87 21 137 -4 71 -71 310 -105 378 l-21 42 56
97 c102 175 126 217 157 273 17 30 45 78 62 106 l33 51 138 -5 c77 -2 142 -7
146 -11 9 -9 11 -294 9 -1717 l-1 -1282 -132 -6 c-73 -3 -392 -10 -708 -16
-316 -6 -755 -15 -975 -20 -220 -5 -553 -11 -740 -12 l-340 -3 0 32 c-1 18 -5
37 -11 43 -9 9 -56 35 -301 167 l-103 55 0 1443 c0 1145 3 1444 13 1448 6 3
41 3 77 1 36 -2 252 -11 480 -19z m-2214 -807 c1 -648 -1 -778 -12 -778 -8 0
-20 16 -28 35 -38 90 -192 262 -301 336 -92 62 -185 151 -231 220 -60 89 -209
232 -306 293 -74 47 -79 52 -117 132 -23 46 -41 86 -41 88 0 2 -31 69 -70 148
-63 129 -68 144 -53 156 9 6 33 12 52 12 20 0 97 9 171 20 74 10 212 29 305
40 94 12 265 35 380 50 116 15 219 27 230 27 20 -2 20 -10 21 -779z m5834 723
l135 -6 0 -712 c0 -392 -3 -713 -7 -713 -4 0 -9 4 -13 10 -3 5 -12 7 -19 4
-18 -7 -278 -287 -407 -439 -19 -22 -36 -42 -39 -45 -57 -56 -148 -171 -156
-199 l-11 -36 -12 28 c-8 21 -11 312 -11 1079 l0 1050 203 -7 c111 -4 263 -10
337 -14z m-8290 -533 l128 -263 -48 -60 c-133 -170 -218 -379 -236 -585 -4
-41 -12 -78 -18 -82 -6 -4 -173 -8 -372 -8 -273 0 -364 3 -376 13 -8 6 -25 28
-36 48 -32 53 -55 59 -217 59 l-145 0 0 423 0 422 35 55 c19 30 39 65 45 78 5
12 11 22 12 22 2 0 53 7 113 15 61 8 151 20 200 25 50 6 176 22 280 35 105 14
246 32 315 41 69 8 132 17 140 18 49 11 49 12 180 -256z m11721 161 c18 -9
171 -64 714 -254 99 -34 252 -88 340 -120 88 -31 178 -63 200 -70 268 -88 355
-127 355 -159 0 -5 20 -64 45 -130 24 -67 60 -166 80 -221 19 -55 45 -124 56
-153 12 -29 19 -55 16 -58 -2 -3 -51 11 -108 30 -264 88 -480 156 -496 156
-11 0 -23 4 -28 9 -6 5 -158 57 -340 116 -181 58 -350 114 -375 124 -47 18
-71 50 -225 295 -33 53 -111 174 -172 268 -62 95 -113 174 -113 175 0 7 33 2
51 -8z m-5346 -18 c3 -5 -1 -15 -8 -23 -7 -7 -16 -21 -20 -31 -4 -9 -15 -20
-24 -23 -86 -29 -173 -101 -220 -181 -14 -24 -36 -76 -50 -116 -34 -96 -38
-286 -8 -387 17 -58 67 -161 98 -200 23 -30 104 -90 143 -106 65 -27 167 -21
249 16 37 17 71 28 74 24 8 -8 -62 -69 -114 -99 -22 -13 -71 -30 -108 -38 -65
-13 -72 -13 -122 8 -81 32 -129 68 -177 132 -55 72 -80 125 -110 228 -30 106
-32 313 -4 420 61 229 202 379 363 384 17 1 34 -3 38 -8z m7470 -98 c9 -32 37
-119 62 -193 25 -74 48 -148 53 -165 4 -16 25 -78 45 -136 l38 -107 -163 -203
c-136 -171 -190 -230 -190 -207 0 8 -99 284 -155 433 -31 83 -59 157 -61 166
-3 9 20 50 55 97 34 45 61 85 61 89 0 8 72 103 106 140 14 15 44 54 66 86 21
31 45 57 52 57 9 0 21 -24 31 -57z m-16300 -203 c32 -74 66 -152 76 -172 21
-41 22 -37 -38 -133 -24 -38 -91 -150 -110 -185 -11 -19 -49 -84 -85 -145 -36
-60 -75 -126 -85 -145 -11 -19 -51 -87 -88 -150 -37 -63 -74 -130 -81 -147
-18 -43 -29 -42 -42 5 -5 20 -36 109 -67 197 -32 88 -58 169 -58 180 1 18 65
135 112 203 17 25 70 111 98 157 14 25 261 432 280 464 8 13 18 19 23 15 4 -5
33 -70 65 -144z m3788 22 c43 -18 112 -54 155 -79 92 -55 87 -52 79 -59 -3 -3
-34 1 -69 9 -102 26 -317 17 -443 -17 -390 -106 -689 -434 -756 -830 -16 -97
-6 -322 19 -406 35 -118 50 -156 86 -216 20 -32 36 -63 36 -68 0 -18 -62 49
-115 124 -161 229 -223 481 -181 741 36 219 121 383 281 545 67 67 207 174
228 174 3 0 47 20 99 44 94 44 134 53 288 65 168 12 209 9 293 -27z m8229
-367 c89 -21 191 -58 195 -71 2 -7 -29 -13 -94 -17 -225 -12 -452 -114 -632
-281 -95 -89 -231 -290 -231 -342 0 -9 -8 -28 -19 -42 -10 -15 -29 -67 -42
-117 -39 -150 -32 -397 17 -543 35 -104 115 -248 174 -316 34 -37 59 -71 56
-74 -10 -9 -81 45 -162 124 -87 86 -163 193 -208 294 l-29 64 6 376 5 375 33
52 c19 29 49 76 66 106 74 121 235 260 378 327 192 90 351 117 487 85z m-7812
-96 c215 -60 413 -212 517 -396 46 -83 113 -260 113 -300 0 -37 -10 -40 -44
-18 -12 8 -54 26 -92 39 -38 14 -134 48 -214 76 -222 79 -227 81 -258 69 -33
-13 -76 -61 -102 -116 -11 -24 -23 -43 -26 -43 -10 0 8 65 22 81 21 24 17 45
-21 99 -19 27 -35 53 -35 57 0 3 -6 14 -14 22 -8 9 -28 57 -45 107 -26 76 -31
109 -33 200 -2 60 -7 112 -13 116 -12 9 -130 -1 -162 -13 -13 -5 -44 -9 -68
-9 -29 0 -45 -5 -49 -15 -3 -8 -15 -15 -26 -15 -11 0 -20 -4 -20 -10 0 -5 -12
-13 -27 -16 -16 -4 -39 -15 -52 -26 -13 -10 -28 -18 -33 -18 -13 0 -51 -31
-118 -94 -60 -57 -80 -72 -80 -59 0 21 137 147 180 167 8 3 29 15 45 26 17 11
37 23 45 26 8 3 31 13 50 22 82 36 305 73 410 66 40 -2 108 -14 150 -25z
m-3220 -144 l0 -125 -26 -10 c-28 -11 -129 -8 -141 4 -4 4 -2 15 5 24 6 9 25
40 42 67 17 28 36 59 43 70 7 10 22 36 35 57 12 21 27 38 32 38 6 0 10 -49 10
-125z m11595 -129 c175 -31 327 -109 451 -231 91 -90 131 -145 164 -225 13
-30 30 -63 38 -72 19 -22 6 -42 -22 -33 -11 4 -48 11 -81 15 -33 4 -158 19
-278 35 -273 35 -257 41 -305 -126 -18 -62 -37 -118 -41 -122 -12 -12 -31 0
-31 18 0 8 -16 40 -35 72 -80 132 -120 356 -96 544 6 55 9 104 5 110 -19 31
97 39 231 15z m-270 -26 c-3 -5 -25 -10 -49 -10 -23 0 -60 -8 -82 -19 -21 -10
-56 -21 -76 -25 -21 -4 -38 -11 -38 -16 0 -6 -9 -10 -20 -10 -11 0 -20 -4 -20
-8 0 -9 -110 -89 -150 -110 -14 -7 -36 -31 -50 -54 -14 -23 -49 -70 -77 -104
-29 -34 -64 -84 -79 -111 -16 -30 -24 -39 -21 -23 15 78 71 166 171 266 66 65
148 134 161 134 4 0 33 12 64 27 77 36 92 42 121 45 14 2 31 9 38 16 16 14
116 17 107 2z m-11856 -164 c24 -19 57 -79 80 -146 29 -84 52 -270 39 -316
l-9 -35 -18 22 c-16 20 -23 21 -52 13 l-34 -10 -3 -72 c-2 -40 -7 -72 -13 -72
-6 0 -9 28 -8 68 4 172 -60 507 -103 533 -6 4 -8 14 -5 22 4 11 18 13 59 9 29
-2 59 -10 67 -16z m927 3 c7 -5 30 -60 52 -122 54 -155 80 -375 41 -351 -5 3
-161 5 -346 5 -261 0 -338 -3 -344 -13 -15 -23 -21 0 -35 124 -8 68 -19 143
-25 168 -15 62 -48 152 -61 167 -30 36 -10 38 353 35 219 -2 357 -7 365 -13z
m489 -99 c3 -5 -7 -16 -22 -24 -33 -17 -93 -87 -115 -136 -44 -96 -49 -276 -8
-342 11 -18 20 -40 20 -48 0 -27 91 -120 144 -147 41 -21 65 -27 121 -27 87 0
126 19 206 100 15 14 28 22 30 18 8 -19 -2 -974 -10 -974 -5 0 -13 12 -19 28
-5 15 -42 68 -81 117 -39 50 -74 95 -79 100 -4 6 -39 53 -78 105 -39 52 -78
101 -87 109 -9 7 -17 17 -17 22 0 5 -8 17 -17 27 -10 11 -27 32 -38 47 -36 52
-109 140 -130 157 -19 16 -20 29 -23 442 l-3 425 83 4 c46 1 91 4 100 5 9 1
19 -2 23 -8z m-2907 -76 c5 -41 73 -182 126 -262 85 -128 265 -295 397 -370
76 -43 89 -59 55 -68 -14 -3 -26 -9 -26 -13 0 -4 -23 -36 -50 -71 -93 -120
-91 -101 -21 -170 33 -33 61 -66 61 -75 0 -31 -40 -14 -91 39 -56 58 -71 61
-93 17 -8 -14 -25 -38 -39 -53 -52 -56 -237 -308 -237 -323 0 -25 -44 -18 -88
15 -23 17 -44 30 -48 30 -20 0 -218 191 -270 261 -63 83 -184 298 -184 325 0
5 20 37 43 73 24 37 85 128 135 204 51 76 92 140 92 143 0 4 74 117 118 179
16 22 44 66 63 97 37 62 52 68 57 22z m5412 -104 c83 -31 218 -79 285 -102 33
-11 94 -38 135 -60 41 -23 156 -84 255 -136 99 -52 198 -105 220 -117 22 -13
51 -26 64 -30 14 -4 52 -24 85 -44 58 -35 239 -134 461 -251 55 -29 114 -60
130 -70 47 -27 195 -106 360 -190 82 -43 151 -82 153 -88 2 -8 -12 -9 -46 -5
-76 9 -104 -11 -153 -109 -37 -74 -43 -80 -55 -64 -26 36 -174 124 -220 131
-24 3 -47 12 -51 18 -12 19 -121 99 -188 137 -104 60 -119 68 -160 89 -22 12
-78 44 -125 72 -47 28 -110 64 -140 81 -30 17 -62 37 -71 44 -8 8 -20 14 -25
14 -5 0 -51 25 -102 55 -51 30 -97 55 -101 55 -5 0 -11 7 -15 15 -3 8 -12 15
-19 15 -14 0 -115 51 -152 76 -11 8 -26 14 -34 14 -8 0 -24 8 -35 18 -19 17
-233 137 -431 242 -44 24 -93 52 -108 62 -22 16 -31 17 -42 8 -12 -10 -15 -9
-15 6 -1 31 54 134 70 134 8 0 40 -9 70 -20z m-1919 -242 c69 -135 272 -327
436 -412 54 -27 204 -86 222 -86 32 0 117 -49 176 -100 131 -114 268 -186 439
-232 67 -18 110 -22 241 -22 144 0 170 2 260 27 115 32 276 108 353 166 29 23
60 41 70 41 9 0 57 -23 106 -50 49 -28 92 -50 96 -50 4 0 19 -9 33 -20 25 -20
25 -22 24 -143 l-2 -122 -1247 -3 c-687 -1 -1248 1 -1248 5 0 5 -1 241 -3 526
-2 552 -1 564 44 475z m10384 27 c352 -47 348 -46 530 -98 221 -64 699 -200
770 -219 125 -34 168 -46 295 -83 69 -20 188 -54 265 -75 77 -21 187 -52 245
-69 58 -16 124 -35 148 -41 52 -13 47 -26 -14 -33 -66 -7 -97 -33 -110 -96
-16 -71 -28 -83 -62 -66 -15 8 -58 23 -97 35 -38 11 -99 29 -135 40 -36 10
-112 33 -170 49 -58 17 -175 51 -260 76 -85 26 -177 53 -205 60 -54 15 -328
94 -690 200 -126 37 -259 75 -295 85 -161 45 -356 104 -364 111 -11 10 23 139
37 139 1 0 52 -7 112 -15z m-8668 -404 c49 -28 137 -73 196 -102 59 -28 107
-53 107 -55 0 -8 -190 -94 -220 -100 -19 -4 -39 -10 -45 -14 -22 -17 -159 -40
-235 -40 -80 0 -216 24 -234 41 -6 5 -18 9 -29 9 -26 0 -163 58 -178 76 -19
23 5 17 79 -20 78 -39 128 -56 164 -56 15 0 33 -7 42 -15 12 -12 44 -15 159
-15 120 0 146 3 151 15 3 10 19 15 45 15 22 0 43 5 46 10 3 6 15 10 25 10 29
0 191 80 185 90 -4 6 -15 10 -26 10 -10 0 -19 5 -19 10 0 6 -9 10 -20 10 -11
0 -20 4 -20 10 0 5 -11 12 -25 16 -14 3 -25 9 -25 13 0 4 -17 13 -37 20 -64
21 -183 85 -183 99 0 6 2 12 4 12 2 0 44 -22 93 -49z m-3193 -217 c3 -9 6
-130 6 -270 0 -311 -4 -301 131 -294 68 3 79 -13 79 -114 0 -98 4 -103 100
-139 35 -14 66 -30 68 -36 2 -6 -10 -28 -27 -48 -55 -67 -224 -286 -291 -376
-35 -48 -69 -87 -76 -87 -6 0 -46 43 -89 96 -165 205 -393 335 -665 381 -144
24 -753 23 -948 -1 -79 -9 -147 -15 -150 -11 -4 3 -2 12 3 19 6 7 34 48 63 90
58 84 72 94 105 78 46 -22 216 -44 354 -46 168 -1 155 -9 268 154 40 58 98
139 128 180 30 41 83 115 118 163 119 164 193 262 203 269 6 4 147 8 312 8
266 0 303 -2 308 -16z m203 4 c5 -10 8 -265 3 -411 0 -5 -10 -7 -22 -5 -23 3
-23 4 -26 203 -1 110 0 205 2 212 7 17 32 17 43 1z m14220 -147 c10 -16 55
-80 100 -143 46 -62 119 -162 163 -223 44 -60 80 -115 80 -121 0 -6 -26 -36
-57 -68 -100 -98 -305 -183 -309 -126 -1 15 -17 53 -33 80 -12 19 -127 224
-175 312 -20 36 -43 72 -51 78 -8 7 -15 25 -15 40 0 35 21 143 30 153 7 8 179
44 222 46 19 1 31 -7 45 -28z m-16679 -289 c13 -11 61 -45 107 -76 87 -59 106
-81 75 -89 -10 -2 -76 -83 -148 -178 -71 -96 -137 -180 -146 -188 -21 -18 -21
-41 2 -41 12 0 9 -4 -10 -14 -54 -28 -185 -135 -249 -203 -88 -93 -169 -218
-258 -395 -40 -82 -77 -148 -82 -148 -5 0 -9 -18 -9 -39 0 -22 -4 -43 -10 -46
-5 -3 -10 3 -10 14 0 12 -4 21 -8 21 -18 0 -62 -57 -62 -80 0 -42 -26 -3 -55
85 -15 44 -50 128 -77 187 -33 69 -47 111 -42 120 9 14 576 774 593 795 6 6
64 85 131 175 67 89 128 171 136 182 15 18 18 17 57 -21 23 -22 53 -49 65 -61z
m7945 -18 c23 -8 61 -26 84 -40 52 -30 53 -37 17 -200 -14 -66 -32 -152 -39
-193 -8 -41 -18 -78 -23 -83 -20 -20 -89 -27 -176 -17 -98 11 -195 46 -162 58
19 7 38 49 60 136 8 28 17 58 21 67 9 23 -16 33 -43 19 -18 -10 -21 -7 -27 19
-4 16 -4 34 0 40 11 18 35 10 45 -15 13 -33 38 -32 46 3 10 44 36 135 45 160
11 28 3 46 -17 38 -8 -3 -14 1 -14 9 0 27 104 27 183 -1z m3654 -231 c43 -59
108 -148 145 -198 38 -49 68 -96 68 -104 0 -23 -79 -89 -154 -127 -66 -34
-100 -38 -94 -12 2 15 -19 108 -37 158 -7 19 -30 95 -52 168 -21 74 -46 142
-56 153 -24 26 -49 21 -58 -11 -6 -23 -7 -22 -8 8 -1 28 2 32 25 32 14 0 35 5
47 12 18 10 62 23 89 27 4 1 42 -47 85 -106z m5490 -170 c4 -10 24 -46 45 -81
21 -34 38 -64 38 -66 0 -2 41 -74 90 -160 50 -86 90 -159 90 -161 0 -3 29 -53
64 -112 53 -90 174 -304 270 -476 11 -21 26 -46 31 -55 6 -10 32 -56 59 -102
27 -47 64 -110 82 -142 19 -31 34 -63 34 -71 0 -20 -149 -158 -225 -209 -180
-120 -378 -179 -590 -173 -184 4 -206 9 -75 15 l125 5 -3 40 c-2 22 -10 58
-18 80 -7 22 -14 49 -14 59 0 11 -7 44 -16 75 -9 31 -19 72 -24 91 -4 19 -13
58 -20 85 -7 28 -19 82 -27 120 -7 39 -20 90 -27 115 -8 25 -24 90 -36 145
-28 130 -39 166 -57 187 -10 11 -13 27 -9 41 3 14 -6 71 -20 128 -15 57 -32
131 -39 164 -32 146 -60 251 -69 257 -5 3 -15 4 -22 1 -7 -2 -21 0 -31 6 -16
10 -17 10 -1 11 10 0 37 9 60 19 24 11 70 31 102 46 61 26 189 106 201 125 10
15 25 12 32 -7z m-11598 -143 c312 -14 416 -31 575 -97 60 -25 206 -111 232
-138 9 -8 19 -15 23 -15 18 0 214 -215 247 -271 6 -10 18 -27 27 -36 8 -10 20
-31 26 -46 10 -25 9 -27 -8 -17 -12 6 -213 9 -563 9 -805 -2 -1082 2 -1093 12
-6 6 -16 1 -27 -13 l-18 -23 -25 30 c-14 17 -25 34 -25 38 0 24 -160 244 -228
315 -82 85 -175 162 -197 162 -7 0 -18 7 -25 15 -14 17 -5 20 120 34 47 6 123
15 170 21 72 10 174 15 504 28 21 1 149 -3 285 -8z m-3984 -58 c69 -25 133
-44 181 -54 28 -5 64 -20 80 -34 16 -13 57 -42 90 -64 73 -48 294 -287 294
-318 0 -6 11 -28 25 -48 36 -53 33 -68 -7 -46 -30 16 -80 17 -635 12 l-601 -5
-46 -32 c-47 -33 -66 -40 -66 -24 0 5 9 11 21 14 16 4 19 10 14 29 -10 32 -13
34 -36 20 -27 -17 -34 -11 -75 70 -87 172 -260 386 -344 425 -22 10 -40 21
-40 24 0 3 33 10 73 14 39 4 119 13 177 20 131 16 849 13 895 -3z m-3175 -47
c36 -9 69 -21 74 -26 6 -5 16 -9 22 -9 25 0 140 -73 187 -119 85 -81 247 -323
247 -368 0 -20 -10 -16 -41 16 -23 25 -30 27 -40 15 -10 -12 -81 -14 -440 -14
-477 0 -446 -5 -412 67 13 28 21 34 40 30 12 -2 23 0 23 5 0 4 12 6 28 3 15
-3 20 -2 12 2 -21 9 -40 30 -40 43 0 6 -17 -5 -37 -24 -21 -20 -46 -39 -55
-42 -20 -6 -24 -34 -6 -52 8 -8 8 -15 -1 -26 -16 -20 -51 0 -51 28 0 11 -8 28
-17 38 -14 16 -15 23 -5 39 7 10 8 19 3 19 -5 0 -16 3 -25 6 -23 9 -20 -13 10
-73 22 -43 25 -55 14 -68 -15 -18 -36 -6 -46 28 -3 12 -20 51 -36 87 -17 36
-34 74 -39 85 -17 39 -93 150 -133 194 -54 59 -61 66 -91 88 l-30 21 25 6 c71
17 244 24 505 22 237 -3 302 -6 355 -21z m9360 -40 c30 -8 81 -15 114 -15 66
0 63 13 27 -115 -21 -78 -165 -558 -211 -705 -31 -98 -191 -631 -214 -710 -8
-25 -20 -70 -29 -100 -9 -30 -23 -80 -32 -110 -9 -30 -24 -85 -34 -122 -28
-114 -36 -101 -45 75 -5 99 -21 214 -46 340 -15 75 -13 162 5 177 8 7 15 20
15 30 0 10 7 37 16 61 9 24 27 85 40 134 13 50 30 113 39 140 9 28 20 66 25
85 12 45 30 105 74 256 20 66 36 128 36 136 0 9 9 38 20 64 33 76 22 86 -32
30 -26 -26 -51 -45 -57 -41 -19 11 -12 40 17 67 15 15 40 40 57 57 16 17 37
30 45 28 10 -1 19 14 28 48 7 28 20 75 28 105 8 30 16 64 18 75 2 11 4 21 5
23 3 6 40 1 91 -13z m1529 -35 c57 -5 129 -17 159 -26 56 -16 180 -73 204 -93
7 -6 26 -21 41 -32 32 -24 167 -183 167 -197 0 -5 9 -17 20 -27 26 -23 28 -60
3 -50 -32 13 -957 5 -965 -8 -11 -18 -28 5 -88 117 -28 54 -56 104 -61 110
-67 84 -139 161 -162 172 -15 8 -25 19 -22 23 2 5 42 9 87 10 45 1 84 3 86 6
9 9 423 5 531 -5z m10001 -20 c184 -31 377 -99 490 -174 54 -36 180 -138 180
-145 0 -4 -356 -6 -790 -6 -434 0 -790 -3 -790 -7 0 -5 -8 -8 -18 -8 -11 0
-40 26 -68 61 -59 74 -191 191 -256 228 -26 14 -48 29 -48 32 0 6 50 10 310
29 163 12 902 4 990 -10z m-7305 -55 c18 -33 43 -78 55 -100 12 -22 64 -112
115 -200 50 -88 154 -270 230 -405 76 -135 156 -274 177 -309 l39 -64 -28 -30
c-58 -62 -181 -151 -258 -188 -131 -63 -177 -71 -397 -67 l-193 3 -4 25 c-3
25 -3 25 18 6 18 -17 41 -20 154 -24 117 -4 135 -2 151 13 10 11 14 24 10 34
-4 9 -17 52 -29 96 -12 44 -39 136 -60 205 -20 69 -43 150 -51 180 -14 52 -48
168 -79 270 -8 25 -24 81 -35 125 -30 110 -81 259 -93 271 -4 4 -7 20 -7 35 0
15 -4 31 -10 34 -15 10 -12 25 8 32 56 20 168 76 194 98 17 14 37 25 45 23 8
-2 30 -30 48 -63z m1692 -51 c58 -8 135 -26 172 -40 36 -14 82 -30 101 -36 19
-5 46 -19 60 -29 107 -82 180 -143 180 -152 0 -1 -75 -2 -167 -2 -93 0 -181
-4 -196 -8 -16 -4 -51 -28 -77 -53 -27 -25 -54 -43 -59 -39 -17 10 -13 21 13
33 16 7 29 25 35 48 11 41 5 59 -10 31 -7 -11 -22 -17 -46 -17 -29 0 -34 3
-25 12 16 16 15 28 -3 28 -8 0 -15 -9 -15 -20 0 -20 -5 -20 -306 -20 -229 1
-309 -2 -321 -11 -9 -8 -17 -9 -21 -3 -61 89 -192 225 -237 246 -14 6 -25 14
-25 18 0 29 770 41 947 14z m-16337 -99 c55 -39 98 -83 120 -123 11 -20 30
-53 41 -72 26 -43 86 -198 104 -265 17 -68 42 -178 54 -245 43 -221 61 -587
41 -860 -12 -171 -32 -354 -42 -380 -3 -8 -11 -40 -17 -70 -41 -184 -136 -434
-190 -496 -11 -13 -21 -27 -21 -30 0 -4 -17 -22 -37 -41 -154 -142 -287 -77
-423 207 -17 36 -35 73 -40 82 -6 10 -10 28 -10 41 0 13 -4 27 -9 33 -13 15
-41 110 -41 141 0 16 -4 33 -9 39 -7 8 -18 62 -51 249 -25 144 -36 685 -16
815 3 19 10 76 17 125 20 167 46 283 101 448 47 144 69 192 126 279 49 76 111
134 157 148 44 13 105 3 145 -25z m11013 -17 c90 -37 153 -111 222 -263 57
-124 68 -157 104 -320 35 -160 44 -246 48 -465 4 -185 2 -234 -17 -350 -38
-245 -45 -272 -95 -429 -9 -26 -87 -185 -107 -216 -24 -36 -111 -125 -124
-125 -6 0 -25 -7 -40 -15 -108 -56 -251 45 -351 247 -19 39 -37 83 -40 97 -2
14 -8 30 -13 36 -4 5 -15 39 -25 75 -22 88 -24 97 -35 158 -5 29 -12 57 -16
63 -3 6 -10 56 -15 112 -5 56 -12 124 -14 150 l-5 48 32 -3 c33 -3 33 -4 40
-68 18 -176 99 -370 192 -462 63 -62 94 -78 161 -85 64 -7 110 7 168 52 130
99 218 328 233 607 12 208 -31 451 -103 593 -25 48 -98 139 -135 167 -18 14
-46 52 -62 84 -34 67 -84 155 -133 231 -18 29 -34 58 -35 64 -3 12 59 37 95
38 10 1 42 -9 70 -21z m-8134 -5 c3 -5 22 -19 41 -30 97 -60 196 -211 276
-423 14 -36 34 -82 45 -102 10 -20 19 -48 19 -62 0 -14 7 -51 15 -83 113 -423
125 -1085 29 -1553 -8 -41 -19 -95 -24 -120 -8 -41 -22 -90 -38 -130 -3 -8
-11 -33 -18 -55 -28 -92 -122 -305 -135 -305 -12 0 -16 35 -8 58 5 12 13 22
19 22 13 0 13 43 -1 57 -6 6 -9 17 -6 25 4 9 8 5 12 -9 10 -30 25 -29 25 1 0
13 7 29 15 36 8 7 15 21 15 31 0 10 4 20 9 23 5 4 12 25 16 48 4 23 16 57 27
76 20 37 18 62 -6 62 -10 0 -13 6 -10 15 4 8 12 15 19 15 20 0 39 27 23 33
-10 4 -8 9 5 17 9 6 17 23 17 37 0 20 -4 24 -20 20 -25 -6 -25 1 0 33 17 21
20 22 20 7 0 -11 5 -17 13 -14 6 2 10 11 7 18 -2 8 -3 36 -2 63 2 39 -1 47
-13 42 -9 -3 -15 0 -15 9 0 20 19 29 34 15 19 -15 24 3 19 65 -3 28 1 70 7 95
15 58 20 132 14 193 -8 62 -24 51 -24 -16 0 -29 -6 -62 -14 -72 -8 -11 -16
-45 -19 -75 -5 -64 -24 -141 -38 -154 -11 -13 -12 -69 0 -82 5 -5 5 -18 1 -29
-8 -19 -9 -19 -9 3 -1 22 -21 33 -21 11 0 -20 -80 -179 -90 -179 -5 0 -10 -9
-10 -19 0 -10 -7 -21 -15 -25 -8 -3 -15 -11 -15 -17 0 -14 -92 -103 -145 -139
-51 -35 -84 -43 -169 -41 -64 2 -95 11 -156 46 -60 35 -202 215 -214 273 -4
17 -14 36 -21 42 -8 7 -17 27 -21 46 -3 18 -12 38 -20 45 -8 6 -14 24 -14 40
0 16 -6 48 -14 71 -20 59 -36 144 -41 214 -11 131 -17 179 -26 188 -12 13 -12
-148 0 -211 5 -26 14 -84 20 -128 6 -44 16 -116 22 -160 6 -44 12 -87 13 -95
1 -9 6 -22 11 -30 5 -8 8 -31 6 -52 -1 -21 1 -38 5 -38 13 0 33 35 34 58 0 12
5 22 10 22 17 0 11 -40 -10 -62 -24 -26 -26 -51 -5 -72 18 -18 19 -33 3 -38
-10 -4 -7 -16 9 -49 12 -24 29 -69 39 -99 17 -55 48 -132 65 -160 5 -8 14 -27
20 -42 6 -16 15 -28 20 -28 5 0 9 -11 9 -24 0 -14 5 -28 10 -31 6 -3 10 -1 10
5 0 6 5 8 10 5 6 -4 8 -14 5 -24 -3 -12 18 -41 70 -94 71 -73 77 -77 119 -77
25 0 48 -5 52 -11 4 -8 9 -8 17 0 6 6 27 11 47 11 24 0 39 6 48 20 7 11 16 20
22 20 11 0 100 89 100 101 0 4 13 22 30 40 26 29 30 31 36 14 5 -11 2 -22 -7
-29 -8 -6 -21 -24 -29 -39 -8 -16 -42 -55 -76 -87 -81 -75 -146 -98 -231 -81
-65 13 -145 68 -188 131 -15 22 -31 40 -35 40 -8 0 -142 269 -159 320 -90 269
-125 443 -150 750 -10 120 -10 109 -10 300 -1 297 28 586 84 833 19 83 85 283
116 352 13 28 26 57 29 65 20 56 94 165 149 221 90 91 135 111 230 105 41 -3
77 -9 80 -13z m4055 -53 c126 -57 265 -251 372 -520 57 -145 126 -384 144
-500 5 -30 16 -93 24 -140 45 -245 68 -734 47 -1010 -18 -242 -31 -364 -41
-381 -5 -9 -6 -41 -3 -71 4 -38 1 -65 -10 -89 -8 -19 -29 -92 -47 -164 -17
-71 -35 -139 -40 -150 -5 -11 -11 -29 -13 -40 -31 -125 -146 -384 -213 -478
-19 -26 -34 -50 -34 -55 0 -6 -36 -45 -88 -93 -9 -9 -44 -34 -77 -55 -59 -38
-62 -39 -155 -39 -106 0 -124 8 -229 92 -29 24 -57 43 -61 43 -5 0 -11 8 -14
18 -3 9 -26 49 -51 87 -41 63 -107 191 -140 270 -7 17 -18 41 -23 55 -63 147
-155 541 -181 770 -6 52 -16 140 -22 195 -13 121 -7 663 9 845 14 143 43 320
78 464 13 54 24 108 24 118 0 26 81 268 115 343 19 42 95 196 109 220 79 141
208 259 311 286 51 14 156 3 209 -21z m3764 -44 c2 -9 42 -83 89 -164 47 -81
100 -174 118 -207 49 -92 145 -256 171 -295 l24 -34 -33 -34 c-58 -60 -161
-123 -253 -154 -98 -32 -268 -49 -334 -31 -34 9 -35 11 -42 71 -5 48 -2 77 13
129 12 38 24 82 29 98 5 17 17 59 28 95 74 241 126 413 138 460 23 87 25 91
37 87 7 -2 14 -11 15 -21z m9794 -53 c38 -25 89 -69 113 -97 48 -56 155 -215
155 -229 0 -5 13 -37 30 -71 34 -70 98 -259 110 -326 5 -25 15 -76 23 -115 32
-153 47 -318 47 -526 0 -197 -6 -273 -32 -414 -6 -33 -14 -87 -18 -120 -4 -33
-16 -87 -28 -120 -12 -32 -22 -68 -22 -78 0 -13 -5 -17 -15 -14 -11 5 -13 0
-9 -22 12 -56 -144 -371 -220 -447 -11 -12 -32 -34 -46 -49 -44 -49 -132 -110
-179 -123 -111 -32 -280 -21 -317 20 -10 10 -21 18 -26 18 -24 0 -172 149
-202 204 -6 12 -25 41 -41 66 -37 58 -96 187 -123 270 -60 181 -72 225 -72
259 0 20 -6 56 -14 81 -18 61 -35 244 -39 423 l-4 147 36 0 c77 0 76 1 75
-115 -1 -57 5 -134 13 -172 7 -37 18 -93 24 -123 40 -205 169 -429 304 -528
108 -80 191 -102 302 -82 174 32 311 165 421 410 66 146 109 403 99 597 -6
136 -56 395 -80 419 -13 14 -7 29 29 68 25 27 36 49 36 70 0 26 -34 96 -103
206 -39 64 -119 215 -119 227 0 7 -7 16 -15 19 -8 4 -15 10 -15 15 0 8 -129
236 -157 277 -25 36 2 27 79 -25z m-5357 16 c39 -14 75 -40 125 -88 38 -38 70
-73 70 -79 0 -5 16 -33 35 -62 19 -29 35 -58 35 -65 0 -7 7 -18 15 -25 8 -7
15 -24 15 -38 0 -13 6 -30 13 -36 8 -6 26 -51 41 -101 14 -49 30 -103 35 -120
5 -16 17 -73 26 -125 10 -52 21 -104 26 -115 5 -11 8 -38 8 -60 0 -22 0 -132
0 -245 1 -271 -24 -450 -97 -695 -23 -76 -88 -219 -108 -235 -7 -7 -14 -20
-14 -29 0 -27 -143 -174 -196 -201 -67 -34 -179 -35 -241 -3 -195 103 -340
394 -403 811 -10 70 -20 156 -21 192 l-3 65 40 3 40 3 12 -88 c10 -83 17 -118
40 -203 14 -52 72 -171 87 -176 7 -3 15 -17 18 -32 5 -24 98 -132 113 -132 3
0 18 -8 32 -18 123 -85 261 -61 384 64 74 76 95 109 150 234 64 147 89 416 59
635 -6 50 -14 119 -18 154 -3 36 -14 79 -24 95 -10 17 -30 53 -45 81 -15 27
-46 81 -69 120 -47 77 -66 111 -121 212 -50 92 -71 129 -111 190 -18 28 -33
58 -33 66 0 7 -9 22 -20 32 -11 10 -20 22 -20 27 0 15 69 8 125 -13z m-3891
-866 c21 -311 -89 -649 -234 -723 -46 -23 -110 -26 -149 -6 -35 19 -91 80
-125 138 -50 86 -106 284 -106 376 0 31 2 33 31 30 29 -3 33 -8 49 -61 23 -74
63 -131 105 -151 48 -23 180 -22 225 2 44 24 92 102 110 179 7 32 13 101 12
154 -1 92 0 97 28 127 16 18 33 32 38 32 5 0 12 -44 16 -97z m-136 -70 c8
-103 -53 -266 -104 -279 -37 -9 -39 -1 -11 48 28 47 47 126 47 190 0 29 7 49
22 65 29 31 42 25 46 -24z m4286 -15 c35 -279 -3 -544 -104 -724 -90 -161
-227 -229 -349 -174 -125 57 -238 269 -271 513 -12 87 -6 107 36 107 26 0 34
-14 54 -90 15 -61 60 -132 106 -166 33 -26 46 -29 134 -32 58 -3 112 0 133 7
47 16 102 73 133 139 34 72 49 248 28 330 -16 59 -15 63 30 109 46 48 62 43
70 -19z m5295 -15 c38 -141 45 -203 46 -393 0 -211 -11 -294 -62 -440 -46
-133 -100 -224 -181 -306 -289 -288 -651 21 -711 605 -14 135 -14 204 1 219 7
7 31 12 55 12 l43 0 0 -84 c0 -151 49 -294 126 -372 57 -56 86 -64 236 -64
110 0 140 4 176 20 53 24 96 69 131 140 45 89 56 144 56 275 0 99 -5 133 -24
192 -13 40 -30 78 -37 84 -8 6 -14 19 -14 28 0 18 115 121 135 121 8 0 19 -17
24 -37z m-9705 -23 c-8 -74 -31 -148 -59 -184 -53 -70 -104 -57 -150 39 -38
81 -33 96 40 116 33 9 76 23 95 32 42 19 76 18 74 -3z m4257 -135 c11 -132
-40 -278 -109 -318 -53 -31 -61 -10 -24 65 37 74 53 149 51 237 -2 56 1 67 21
83 42 34 54 21 61 -67z m5262 -50 c26 -75 28 -88 24 -207 -4 -123 -5 -130 -41
-203 -38 -77 -78 -117 -128 -129 -42 -10 -43 10 -4 87 20 40 41 97 47 127 16
80 13 235 -6 305 l-16 60 28 23 c47 38 64 27 96 -63z m-5412 -18 c-4 -115 -50
-225 -106 -251 -33 -16 -37 -16 -70 0 -40 19 -77 74 -100 150 -18 60 -13 80
23 88 60 14 159 48 192 66 57 30 64 24 61 -53z m5217 11 c15 -20 32 -113 32
-176 -1 -130 -59 -287 -123 -329 -96 -65 -199 10 -242 176 -20 78 -24 223 -7
244 7 8 36 18 65 22 29 3 95 21 147 39 113 39 115 39 128 24z"/>
<path d="M13510 21040 c-260 -27 -465 -247 -536 -574 -13 -64 -16 -108 -11
-230 7 -166 18 -221 67 -341 61 -148 165 -280 284 -359 128 -85 207 -100 441
-87 251 14 332 47 466 187 194 203 262 528 179 848 -73 276 -266 491 -497 551
-60 16 -267 19 -393 5z m437 -180 c118 -58 228 -190 284 -343 57 -154 67 -356
25 -512 -47 -173 -148 -308 -275 -369 -58 -27 -76 -31 -152 -31 -78 0 -91 3
-160 37 -166 82 -289 270 -330 503 -15 85 -6 266 17 350 41 154 127 282 235
351 102 64 242 70 356 14z m-676 -172 c-71 -143 -91 -232 -91 -413 0 -178 25
-287 97 -429 19 -38 48 -86 65 -108 35 -42 33 -58 -4 -34 -61 40 -154 198
-194 331 -24 79 -27 107 -28 235 -1 165 17 246 79 370 30 60 110 160 127 160
3 0 -20 -51 -51 -112z"/>
<path d="M13721 20789 c-192 -58 -314 -338 -271 -621 22 -146 75 -262 162
-354 135 -143 320 -147 452 -8 93 97 140 236 141 414 0 142 -27 249 -94 369
-33 60 -127 153 -181 181 -51 26 -155 36 -209 19z m319 -221 c28 -44 38 -67
63 -145 32 -100 38 -162 27 -265 -9 -89 -33 -174 -63 -225 -20 -35 -45 -47
-28 -14 81 150 77 447 -7 620 -25 50 -25 51 -14 51 4 0 14 -10 22 -22z m-400
-19 c0 -12 -11 -34 -25 -51 -14 -16 -25 -40 -25 -54 0 -13 -4 -24 -10 -24 -6
0 -10 -55 -10 -145 0 -90 4 -145 10 -145 6 0 10 -15 10 -34 0 -18 7 -39 15
-46 8 -7 15 -21 15 -31 0 -11 5 -19 10 -19 6 0 10 -6 10 -14 0 -7 7 -19 15
-26 17 -14 20 -40 5 -40 -22 0 -48 37 -74 103 -39 97 -49 167 -43 297 5 122
12 148 70 238 13 19 27 14 27 -9z"/>
<path d="M15770 20530 c-257 -27 -464 -246 -534 -567 -20 -92 -21 -273 -1
-389 38 -222 170 -436 339 -548 128 -85 206 -100 446 -87 249 13 319 41 457
183 105 110 163 225 199 394 13 61 15 113 11 229 -7 202 -29 283 -128 465 -82
149 -238 274 -396 315 -60 16 -267 19 -393 5z m437 -180 c118 -58 228 -190
284 -343 57 -154 67 -356 25 -512 -46 -172 -149 -309 -276 -369 -57 -27 -76
-31 -151 -31 -78 0 -91 3 -160 37 -166 82 -289 270 -330 503 -15 85 -6 266 17
350 41 154 127 282 235 351 102 64 242 70 356 14z m-629 -77 c-1 -5 -25 -51
-51 -103 -65 -129 -86 -227 -87 -400 0 -183 24 -290 97 -434 19 -38 48 -86 65
-108 35 -42 33 -58 -4 -34 -61 40 -154 197 -194 331 -25 80 -28 106 -28 235
-1 165 17 247 78 368 35 68 99 152 118 152 5 0 8 -3 6 -7z"/>
<path d="M15981 20279 c-192 -58 -314 -338 -271 -621 22 -146 75 -262 162
-354 135 -143 320 -147 452 -8 93 97 140 236 141 414 0 142 -27 249 -94 369
-33 60 -127 153 -181 181 -51 26 -155 36 -209 19z m319 -221 c8 -13 20 -33 26
-45 22 -39 62 -177 68 -233 11 -107 -21 -277 -67 -357 -20 -35 -45 -47 -28
-14 81 150 77 447 -7 620 -25 50 -25 51 -14 51 4 0 14 -10 22 -22z m-400 -19
c0 -12 -11 -34 -25 -51 -14 -16 -25 -40 -25 -53 0 -13 -4 -25 -10 -27 -14 -5
-15 -281 -1 -286 6 -2 11 -17 11 -33 0 -16 11 -47 25 -69 14 -22 25 -44 25
-49 0 -5 7 -14 15 -21 17 -14 20 -40 5 -40 -34 0 -91 117 -111 228 -16 81 -7
278 14 322 40 86 77 123 77 79z"/>
<path d="M14214 19281 c-45 -21 -79 -66 -89 -122 -8 -44 28 -156 88 -274 48
-94 156 -208 229 -243 63 -29 149 -29 269 2 168 43 233 81 397 237 78 73 90
89 97 127 6 35 3 52 -17 90 -38 74 -77 89 -293 107 -176 16 -415 52 -525 81
-72 19 -106 17 -156 -5z"/>
<path d="M8704 11518 c-3 -5 -1 -14 4 -21 13 -17 3 -87 -14 -94 -19 -7 -18
-15 4 -39 15 -15 30 -19 73 -17 30 1 60 2 68 3 11 0 10 4 -3 23 -8 12 -29 50
-47 84 -22 45 -37 62 -55 66 -14 2 -27 0 -30 -5z"/>
<path d="M8671 11477 c-5 -13 -16 -29 -25 -36 -25 -21 -21 -100 8 -135 18 -22
29 -27 43 -21 29 12 94 13 90 1 -4 -10 -9 -12 -49 -15 -27 -2 -21 -30 7 -37
46 -11 135 20 135 48 0 34 -45 51 -115 45 -63 -6 -66 -5 -97 25 -28 28 -30 32
-15 43 9 7 17 19 17 27 0 9 7 21 15 28 17 14 20 50 5 50 -6 0 -14 -10 -19 -23z"/>
<path d="M8702 11093 c2 -10 13 -19 26 -21 14 -2 22 -10 22 -23 0 -12 10 -23
25 -29 14 -5 25 -14 25 -20 0 -6 -4 -9 -8 -6 -4 2 -14 1 -22 -4 -15 -10 -6
-33 65 -170 31 -60 35 -69 35 -79 0 -6 11 -27 25 -48 l26 -37 -6 69 c-10 108
-12 115 -40 115 -16 0 -25 6 -25 16 0 8 -7 22 -15 30 -8 9 -15 24 -15 35 0 10
-4 19 -10 19 -5 0 -10 9 -10 20 0 11 4 20 9 20 5 0 13 -9 16 -20 8 -26 25 -26
25 1 0 17 5 20 25 17 21 -4 28 1 42 30 13 27 14 38 5 53 -7 10 -12 26 -12 34
0 18 -70 21 -87 4 -8 -8 -22 -8 -49 0 -57 16 -76 14 -72 -6z"/>
<path d="M8065 10642 c-6 -4 -17 -20 -25 -37 -27 -54 -92 -160 -101 -163 -5
-2 -9 -12 -9 -23 0 -10 -4 -19 -10 -19 -5 0 -10 -7 -10 -16 0 -10 6 -14 15
-10 20 7 19 -11 -1 -22 -15 -8 -15 -10 0 -15 11 -5 26 3 43 21 l26 27 -5 -27
c-7 -37 11 -36 45 2 22 24 25 36 20 61 -5 27 -4 31 10 26 12 -5 17 -1 17 13 0
14 -7 20 -23 20 -18 0 -29 -10 -42 -38 -19 -39 -65 -73 -65 -48 0 7 11 25 25
40 14 15 25 31 25 37 0 5 6 12 14 15 8 3 18 19 21 35 4 16 13 29 21 29 16 0
19 16 4 25 -15 9 -12 25 5 25 9 0 15 9 15 25 0 27 0 28 -15 17z"/>
<path d="M19374 11055 c11 -8 25 -15 32 -15 7 0 18 -13 26 -30 9 -22 20 -30
38 -30 14 0 31 5 37 11 8 8 16 8 30 0 17 -10 17 -11 -4 -17 -38 -10 -26 -19
30 -21 28 -2 53 -7 55 -13 2 -5 15 -10 28 -10 14 0 27 -7 30 -15 7 -18 58 -21
52 -3 -3 7 -15 15 -29 18 -16 4 -20 8 -11 14 7 4 26 5 42 1 19 -4 30 -3 30 4
0 6 -12 13 -27 16 -16 4 -35 10 -44 15 -9 4 -38 7 -66 6 -39 -1 -50 2 -49 14
1 10 -10 16 -29 18 -16 2 -34 7 -40 12 -5 5 -27 11 -48 15 -20 4 -40 11 -43
16 -3 5 -17 9 -32 9 -26 -1 -26 -1 -8 -15z"/>
<path d="M11740 5762 c0 -5 -12 -14 -27 -21 -26 -12 -26 -14 -10 -25 23 -17
22 -46 -2 -46 -12 0 -20 -9 -23 -25 -6 -29 -2 -35 24 -35 13 0 18 7 18 25 0
29 7 31 46 10 38 -19 56 -19 52 1 -3 19 -21 30 -60 38 -20 5 -25 10 -21 26 8
30 64 24 78 -7 7 -17 18 -23 43 -23 24 0 47 -11 77 -36 31 -25 52 -35 71 -32
25 3 22 6 -39 46 -37 23 -71 42 -77 42 -20 0 -91 41 -97 55 -5 16 -53 21 -53
7z"/>
<path d="M7371 5725 c8 -9 42 -23 75 -32 67 -19 128 -68 103 -84 -8 -5 -18
-10 -24 -13 -6 -2 -5 -8 2 -16 7 -7 9 -20 5 -29 -11 -23 -8 -52 7 -83 12 -22
22 -28 67 -34 29 -3 59 -4 66 -1 7 3 -4 6 -24 6 -43 1 -83 33 -93 74 -10 38 3
97 20 97 17 0 40 -38 37 -61 -4 -27 31 -50 66 -43 29 6 47 34 22 34 -5 0 -10
-5 -10 -12 0 -6 -13 1 -30 17 -16 15 -27 31 -25 36 3 4 -19 26 -47 50 -29 23
-58 49 -64 56 -7 8 -24 16 -39 19 -16 3 -37 11 -49 19 -11 8 -34 15 -50 15
-27 0 -29 -2 -15 -15z"/>
<path d="M24668 5675 c-3 -3 -137 -7 -299 -10 -162 -2 -300 -4 -306 -4 -7 -1
-13 -7 -13 -13 0 -10 67 -13 306 -11 169 1 309 5 312 8 3 3 25 5 48 5 55 0 65
16 16 24 -46 7 -57 7 -64 1z"/>
<path d="M2833 5452 c-23 -15 -42 -33 -43 -39 0 -7 -9 -22 -20 -33 -11 -11
-20 -24 -20 -30 0 -5 -6 -13 -14 -17 -8 -4 -24 -26 -35 -48 -12 -22 -26 -47
-30 -55 -15 -27 -29 -64 -34 -90 -3 -14 -14 -50 -26 -80 -25 -64 -26 -80 -7
-80 16 0 29 -27 20 -41 -8 -14 -24 -11 -24 6 0 20 -26 19 -34 -1 -3 -8 -1 -24
4 -34 14 -26 13 -36 -6 -55 -9 -8 -18 -35 -21 -58 -3 -23 -9 -46 -13 -52 -14
-18 -24 -138 -11 -131 6 4 11 20 11 36 0 16 5 32 10 35 6 3 10 19 10 36 0 16
4 29 9 29 5 0 17 26 27 58 18 55 41 99 83 154 12 14 21 33 21 42 0 9 7 16 15
16 8 0 19 9 25 20 6 11 19 20 29 20 10 0 24 7 31 15 7 8 23 15 35 15 12 0 28
6 34 14 20 23 59 24 104 3 23 -12 44 -24 47 -28 3 -3 20 -10 38 -14 18 -4 36
-14 40 -23 3 -10 23 -33 44 -54 21 -20 42 -47 48 -60 5 -12 14 -30 19 -38 28
-50 41 -81 41 -99 0 -12 4 -21 9 -21 6 0 11 -16 13 -35 4 -44 19 -50 29 -11
10 38 0 116 -15 113 -7 -1 -10 15 -8 48 2 48 2 49 -12 25 l-14 -25 -13 29
c-11 24 -11 29 4 37 9 6 17 21 17 34 0 30 -16 33 -23 5 -3 -11 -12 -20 -21
-20 -21 0 -21 43 -1 64 17 16 20 72 5 81 -5 3 -10 15 -10 26 0 10 -9 28 -20
39 -12 12 -18 25 -15 29 9 15 -38 108 -62 124 -7 4 -13 16 -13 25 0 9 -10 25
-23 35 -12 9 -42 33 -65 52 -56 45 -108 47 -169 7z"/>
<path d="M2860 5071 c-118 -36 -228 -185 -291 -396 -22 -71 -51 -234 -54 -299
-2 -39 -7 -113 -11 -165 -17 -223 53 -558 153 -732 40 -69 110 -142 163 -169
73 -37 175 -21 235 38 93 89 175 237 175 312 0 14 6 34 13 45 75 112 91 659
26 890 -36 131 -74 232 -106 287 -83 144 -204 219 -303 189z m96 -97 c168 -80
277 -448 261 -879 -12 -303 -84 -541 -199 -656 -77 -77 -141 -77 -219 1 -58
58 -97 134 -138 265 -49 161 -64 304 -58 533 5 198 15 272 57 421 46 164 136
297 215 320 42 13 43 13 81 -5z"/>
<path d="M2776 4571 c-34 -23 -84 -94 -92 -130 -3 -15 -10 -37 -15 -49 -5 -13
-14 -68 -20 -123 -23 -225 43 -441 148 -485 42 -18 164 -18 206 0 164 68 209
519 74 733 -38 61 -69 73 -179 73 -75 0 -99 -4 -122 -19z m103 -90 c79 -110
95 -399 30 -546 -15 -36 -58 -85 -74 -85 -20 0 -61 54 -84 110 -44 109 -39
353 10 467 38 89 80 108 118 54z m123 12 c80 -91 103 -367 45 -533 -24 -68
-54 -110 -78 -110 -15 0 -10 28 11 73 12 23 28 87 37 142 13 85 14 116 4 204
-7 63 -22 128 -37 164 -13 33 -24 64 -24 69 0 14 26 9 42 -9z"/>
<path d="M2516 3695 c3 -38 11 -79 18 -90 7 -11 11 -37 8 -57 -4 -34 -2 -38
18 -38 17 0 21 -4 15 -17 -15 -36 -17 -53 -10 -70 6 -15 9 -13 21 12 l14 30
-6 -35 c-9 -56 -5 -102 10 -114 18 -15 46 -100 39 -124 -2 -10 5 -34 16 -53
11 -19 25 -44 31 -56 5 -13 14 -23 20 -23 5 0 10 -13 10 -30 0 -20 5 -30 15
-30 8 0 15 -5 15 -11 0 -12 62 -75 100 -102 15 -10 43 -17 72 -17 41 0 52 5
89 40 23 22 45 40 48 40 4 0 15 14 24 30 10 17 22 30 28 30 5 0 9 8 9 18 0 9
18 52 40 95 22 43 40 85 40 92 0 8 6 29 14 47 41 95 64 206 50 242 -14 36 -67
-1 -79 -55 -4 -16 -10 -29 -15 -29 -5 0 -12 -9 -15 -20 -4 -11 -15 -20 -27
-20 -15 0 -19 -5 -15 -20 3 -11 1 -20 -4 -20 -6 0 -33 -18 -62 -39 -41 -31
-67 -42 -121 -52 -66 -11 -70 -11 -87 10 -9 11 -26 21 -36 21 -10 0 -26 8 -35
18 -9 9 -22 22 -27 27 -89 86 -171 214 -171 266 0 10 -4 19 -10 19 -5 0 -10
16 -10 35 0 19 -4 35 -10 35 -5 0 -10 10 -11 23 0 12 -5 31 -10 42 -6 13 -7
-3 -3 -50z"/>
<path d="M13900 5440 c0 -5 5 -10 10 -10 6 0 10 -5 10 -11 0 -6 10 -25 22 -42
27 -38 44 -68 92 -163 19 -40 57 -94 83 -122 64 -67 103 -112 103 -121 0 -5 8
-15 18 -24 14 -13 21 -14 30 -5 9 9 12 9 12 0 0 -7 -4 -12 -10 -12 -15 0 -12
-31 5 -64 8 -15 15 -39 15 -52 0 -13 4 -24 9 -24 5 0 11 -14 15 -32 8 -40 22
-27 29 27 3 22 3 32 1 23 -11 -37 -24 -16 -24 37 0 30 -4 55 -10 55 -5 0 -10
24 -10 53 0 41 -5 58 -20 72 -11 10 -20 27 -20 37 0 10 -7 21 -15 24 -10 4
-12 15 -9 34 6 28 -16 56 -24 32 -2 -7 -9 -12 -15 -12 -8 0 -7 4 1 12 7 7 12
22 12 35 0 28 -34 94 -60 118 -19 18 -20 17 -20 -8 0 -15 -4 -27 -10 -27 -13
0 -13 33 0 46 12 12 2 51 -16 58 -8 3 -14 1 -14 -4 0 -6 -7 -10 -16 -10 -12 0
-15 6 -10 23 5 21 -1 27 -42 45 -50 23 -122 30 -122 12z"/>
<path d="M13553 4048 c4 -13 9 -42 13 -66 4 -23 11 -45 15 -48 5 -3 9 -31 9
-63 0 -40 5 -63 15 -71 8 -7 15 -23 15 -36 0 -13 11 -49 25 -80 14 -31 25 -67
25 -80 0 -12 5 -26 10 -29 6 -3 10 -13 10 -21 0 -17 72 -127 109 -166 14 -15
32 -28 39 -28 6 0 12 -4 12 -10 0 -11 77 -50 100 -50 25 0 111 46 143 76 15
14 27 36 27 50 0 14 5 22 13 19 13 -5 57 63 57 89 0 8 9 20 20 26 15 8 19 17
15 31 -4 12 -1 21 9 25 20 8 20 23 0 45 -15 17 -14 19 11 25 22 5 26 10 20 31
-4 19 -1 29 15 40 26 18 26 33 0 33 -12 0 -24 -10 -30 -22 -8 -22 -9 -22 -9 5
-1 22 4 29 27 33 27 5 30 11 50 102 25 107 27 138 12 147 -5 3 -10 -2 -10 -12
0 -10 -7 -31 -15 -47 -8 -15 -15 -39 -15 -52 0 -12 -5 -26 -11 -30 -6 -3 -8
-17 -5 -30 5 -18 2 -24 -11 -24 -11 -1 -27 -19 -43 -51 -23 -48 -91 -129 -107
-129 -5 0 -21 -11 -37 -25 -16 -14 -39 -25 -52 -25 -13 0 -26 -4 -29 -10 -3
-5 -19 -10 -34 -10 -16 0 -34 -7 -41 -15 -7 -8 -16 -15 -21 -15 -5 0 -9 7 -9
15 0 8 5 15 10 15 6 0 10 5 10 10 0 6 -11 10 -24 10 -14 0 -36 4 -50 10 -20 7
-27 6 -34 -7 -6 -9 -15 -13 -23 -9 -78 39 -123 86 -83 86 8 0 28 -14 44 -31
16 -18 33 -28 40 -24 6 4 10 10 8 15 -6 16 -99 80 -109 75 -5 -4 -9 6 -7 22 1
17 -11 51 -29 84 -30 52 -49 106 -60 176 -3 17 -12 34 -20 37 -12 5 -14 1 -10
-16z"/>
<path d="M5740 5438 c-14 -6 -40 -17 -57 -25 -18 -8 -33 -20 -33 -28 0 -8 -9
-15 -20 -15 -11 0 -20 -7 -20 -15 0 -8 -5 -15 -10 -15 -14 0 -69 -62 -70 -77
0 -7 -4 -13 -10 -13 -5 0 -10 -6 -10 -14 0 -7 -7 -19 -15 -26 -9 -7 -15 -20
-13 -29 1 -9 -2 -23 -7 -31 -48 -76 -94 -194 -95 -240 0 -14 -9 -36 -20 -50
-26 -34 -27 -96 -1 -105 10 -3 21 -15 24 -26 6 -24 30 -21 35 5 2 9 15 29 28
43 16 17 22 32 18 42 -13 30 -17 94 -5 87 6 -4 11 -20 11 -37 0 -36 11 -37 47
-1 16 15 46 41 68 59 32 27 36 33 22 39 -21 8 -22 24 -2 24 8 0 15 -4 15 -10
0 -16 50 -12 56 5 5 12 25 15 94 15 66 0 91 -4 100 -15 7 -8 18 -15 24 -15 6
0 32 -11 58 -25 26 -14 57 -25 69 -25 16 0 20 -5 16 -19 -3 -12 4 -27 19 -40
13 -12 24 -26 24 -33 0 -6 7 -20 17 -30 14 -16 18 -17 33 -3 14 12 21 13 43 2
15 -6 27 -20 27 -29 0 -22 -18 -24 -26 -3 -10 26 -24 16 -24 -17 0 -18 14 -60
30 -93 16 -33 30 -68 30 -77 0 -10 5 -18 10 -18 6 0 10 -17 10 -38 0 -21 5
-43 12 -50 18 -18 37 -99 38 -159 0 -35 5 -55 14 -60 12 -7 16 -50 19 -231 2
-129 7 -221 13 -220 11 4 14 469 3 484 -5 6 -11 53 -13 105 -2 52 -5 96 -5 98
-1 3 -8 -4 -17 -15 -15 -18 -15 -18 -9 11 3 17 6 39 6 50 -1 120 -1 121 -14
97 -7 -12 -16 -19 -20 -16 -11 11 -8 52 3 59 12 8 13 45 1 64 -6 9 -14 -2 -26
-38 -9 -28 -21 -49 -26 -45 -12 7 -12 64 0 64 8 0 31 52 31 72 0 5 -6 8 -12 6
-18 -3 -58 12 -58 22 0 20 13 40 27 40 12 0 14 8 9 38 -5 35 -60 176 -76 197
-4 6 -11 25 -15 42 -3 18 -12 31 -18 30 -7 -1 -11 4 -9 12 2 8 -4 29 -13 46
-12 26 -20 32 -38 28 -13 -3 -17 -1 -11 4 13 9 0 53 -16 53 -5 0 -10 6 -10 12
0 15 -66 75 -92 84 -10 3 -18 10 -18 15 0 5 -11 9 -24 9 -14 0 -28 5 -31 10
-8 13 -63 12 -95 -2z"/>
<path d="M5700 4952 c-67 -25 -114 -57 -160 -109 -55 -63 -110 -148 -110 -171
0 -10 -9 -27 -20 -37 -11 -10 -20 -27 -20 -37 0 -11 -5 -29 -11 -40 -15 -28
-46 -136 -64 -223 -17 -81 -45 -366 -38 -378 3 -5 7 -75 8 -155 5 -231 51
-424 148 -632 46 -97 149 -212 224 -251 64 -32 179 -34 237 -4 153 81 279 289
341 562 59 264 61 632 4 880 -33 143 -100 331 -124 345 -7 4 -24 32 -39 62
-50 102 -181 195 -286 202 -26 2 -64 -4 -90 -14z m168 -101 c50 -26 108 -88
164 -175 25 -38 82 -194 101 -276 30 -127 37 -166 47 -260 38 -377 -35 -787
-181 -1005 -224 -334 -514 -96 -611 500 -17 107 -17 486 0 585 17 95 48 227
68 288 49 147 137 279 222 333 56 36 132 40 190 10z"/>
<path d="M5624 4386 c-36 -16 -82 -69 -112 -129 -55 -110 -77 -357 -47 -509
28 -138 87 -238 162 -277 34 -18 253 -14 291 4 62 31 118 127 148 252 21 84
23 303 5 388 -27 124 -94 235 -163 271 -36 19 -240 19 -284 0z m111 -83 c31
-33 61 -89 82 -152 23 -70 29 -319 10 -401 -45 -188 -133 -266 -204 -181 -61
72 -94 191 -96 345 -2 196 36 324 114 390 39 33 62 33 94 -1z m190 -33 c115
-166 106 -575 -15 -702 -49 -51 -99 -43 -64 10 87 129 101 488 25 652 -11 25
-26 53 -33 63 -11 14 -10 19 1 26 21 14 57 -7 86 -49z"/>
<path d="M5310 4686 c0 -19 4 -36 10 -38 5 -1 7 -14 3 -26 -4 -16 -8 -20 -13
-12 -13 21 -32 0 -25 -28 3 -15 0 -49 -6 -77 -6 -27 -15 -88 -19 -135 -5 -47
-12 -114 -15 -150 -6 -59 -5 -63 8 -45 13 18 24 97 30 216 2 28 9 53 20 63 9
10 17 28 17 42 0 13 4 32 9 42 5 9 20 39 32 66 22 49 22 49 3 65 -11 9 -23 24
-27 34 -11 29 -27 19 -27 -17z"/>
<path d="M9753 5395 c-18 -8 -33 -19 -33 -24 0 -12 -31 -51 -41 -51 -3 0 -6 7
-6 15 0 8 6 15 14 15 7 0 13 7 13 15 0 25 -23 17 -65 -21 -22 -20 -61 -56 -87
-80 -27 -24 -48 -52 -48 -62 0 -11 -6 -22 -14 -25 -12 -5 -13 -12 -3 -39 7
-18 17 -37 23 -43 21 -18 25 -51 9 -65 -13 -11 -15 -9 -15 13 0 14 -4 28 -9
31 -4 3 -11 19 -14 36 -4 16 -10 30 -14 29 -8 0 -71 -127 -114 -229 -13 -30
-29 -62 -36 -71 -15 -17 -18 -109 -4 -109 5 0 12 -7 15 -16 4 -10 -7 -29 -29
-51 -45 -45 -65 -83 -65 -122 0 -17 -6 -48 -14 -68 -15 -41 -60 -286 -58 -316
1 -22 43 -76 60 -76 21 -1 13 40 -14 72 -20 23 -22 32 -12 38 9 6 16 1 24 -17
9 -22 12 -23 23 -10 7 8 10 24 6 35 -4 14 1 28 14 43 12 12 21 34 21 49 0 14
6 32 14 38 10 9 13 23 9 49 -6 34 -5 36 11 22 16 -13 18 -12 16 5 -4 39 0 55
15 55 8 0 15 9 15 19 0 10 7 21 15 25 8 3 15 15 15 26 0 11 7 23 15 26 8 4 24
26 35 50 20 46 42 74 57 74 5 0 22 14 38 30 16 17 33 30 37 30 8 0 21 9 53 38
7 6 20 12 27 12 8 0 23 7 34 15 22 17 199 21 209 5 3 -5 19 -10 34 -10 17 0
38 -11 56 -30 16 -16 33 -30 37 -30 23 0 136 -113 143 -143 4 -14 13 -31 21
-38 8 -6 14 -18 14 -26 0 -10 6 -12 20 -8 17 6 20 2 19 -22 -1 -15 9 -46 22
-68 13 -22 24 -44 25 -50 3 -33 18 -76 30 -86 8 -6 14 -17 14 -24 0 -7 10 -24
21 -39 16 -20 19 -30 10 -39 -15 -15 -14 -38 4 -74 9 -17 20 -69 26 -114 6
-46 15 -93 20 -104 10 -25 28 -286 24 -340 -2 -22 -6 -114 -10 -204 -3 -90 -7
-167 -9 -170 -2 -3 -7 -33 -11 -66 -5 -33 -13 -73 -20 -90 -18 -43 -14 -120 5
-120 10 0 14 8 12 24 -2 18 2 22 14 17 8 -3 18 -6 20 -6 2 0 4 -7 4 -15 0 -8
-7 -15 -15 -15 -8 0 -15 -9 -15 -21 0 -40 -18 -59 -50 -52 -29 5 -30 4 -30
-30 0 -19 -5 -37 -11 -39 -12 -4 -40 -71 -42 -102 -1 -11 -14 -33 -29 -50 -16
-17 -28 -35 -28 -41 0 -6 -11 -27 -25 -47 -14 -20 -25 -43 -26 -50 0 -7 -20
-29 -43 -48 -48 -39 -73 -70 -56 -70 6 0 51 41 100 90 49 49 93 90 98 90 8 0
62 55 62 64 0 3 -8 6 -17 8 -12 3 -3 9 24 18 34 10 45 10 57 1 13 -11 16 -8
22 16 3 15 10 42 14 60 4 17 5 34 2 37 -10 11 -22 6 -22 -9 0 -8 -9 -15 -20
-15 -16 0 -20 -7 -20 -30 0 -41 -20 -38 -21 3 0 17 -3 46 -5 62 -4 28 -3 29
11 11 8 -11 15 -24 15 -29 0 -5 7 -4 15 3 20 17 19 37 -2 49 -16 9 -14 11 13
17 30 6 54 36 54 66 0 7 9 22 21 34 l21 22 -21 18 c-23 20 -29 49 -8 41 10 -4
13 11 13 62 0 36 6 77 13 90 18 32 -3 55 -25 27 -14 -19 -14 -19 -14 -1 0 11
12 29 28 41 l27 22 3 259 c2 142 0 268 -3 281 -5 19 -8 21 -26 11 -28 -15 -42
0 -30 32 7 17 10 19 10 7 1 -28 41 -23 41 5 -1 29 -26 64 -33 45 -3 -7 -6 -3
-6 10 -1 12 4 22 9 22 6 0 10 13 10 29 0 25 -3 28 -25 23 -18 -3 -25 0 -25 12
0 12 6 15 25 10 24 -6 24 -5 23 63 0 37 -6 74 -12 82 -6 8 -12 37 -13 65 0 28
-6 74 -13 101 -6 28 -13 66 -14 85 -1 19 -5 42 -8 50 -4 8 -14 41 -23 73 -18
64 -35 67 -35 6 0 -22 -5 -39 -11 -39 -17 0 -3 92 16 106 16 12 20 40 6 48
-11 7 -44 126 -37 133 3 3 -1 18 -9 32 -21 40 -71 153 -80 181 -4 14 -14 34
-21 45 -8 11 -14 27 -14 37 0 9 -6 21 -13 25 -7 4 -19 23 -26 41 -15 35 -31
43 -31 15 0 -29 -34 -73 -49 -64 -10 7 -9 12 7 27 27 26 37 77 20 103 -16 26
-29 26 -60 2 -13 -11 -32 -21 -42 -23 -29 -5 -30 19 -1 26 32 8 32 19 0 40
-25 17 -34 46 -14 46 6 0 22 -13 36 -30 23 -28 53 -40 53 -22 0 11 -60 72 -71
72 -5 0 -9 7 -9 15 0 20 -36 19 -44 -1 -5 -13 -9 -14 -21 -4 -8 7 -15 21 -15
31 0 11 -7 19 -16 19 -8 0 -13 4 -9 9 8 14 -3 18 -65 25 -38 4 -65 1 -87 -9z
m145 -68 c7 -8 7 -18 2 -27 -15 -24 -12 -60 5 -60 8 0 15 -7 15 -16 0 -13 -7
-15 -40 -9 -36 6 -41 5 -50 -19 -5 -14 -16 -26 -25 -26 -8 0 -15 -6 -15 -14 0
-19 -37 -31 -54 -17 -7 6 -15 9 -18 6 -2 -3 -15 6 -28 20 -19 20 -21 28 -11
38 10 9 14 8 22 -6 9 -15 20 -7 87 63 79 82 92 90 110 67z m-214 -233 c22 -22
20 -61 -3 -69 -11 -3 -25 -22 -32 -43 -14 -43 -26 -54 -54 -46 -26 8 -65 44
-65 61 0 7 16 23 35 35 19 13 35 29 35 36 0 10 43 36 67 42 1 0 9 -7 17 -16z
m-183 -209 c6 -35 -6 -65 -24 -65 -3 0 -24 -18 -47 -40 -45 -43 -57 -47 -84
-27 -17 13 -17 16 13 63 17 27 31 45 31 41 0 -9 21 8 57 46 34 35 46 30 54
-18z"/>
<path d="M9697 4770 c-65 -20 -207 -128 -207 -156 0 -5 -12 -23 -27 -40 -32
-34 -62 -87 -115 -197 -5 -9 -15 -39 -24 -65 -8 -26 -19 -56 -24 -67 -33 -74
-79 -311 -91 -474 -12 -146 -5 -493 11 -576 5 -27 16 -90 25 -140 9 -49 20
-101 24 -115 5 -14 16 -52 26 -85 9 -33 22 -71 27 -85 92 -232 186 -355 338
-442 178 -102 412 25 548 298 62 123 102 234 102 279 0 14 7 40 17 58 34 67
73 376 73 587 0 121 -21 355 -41 445 -24 114 -40 181 -48 200 -5 11 -16 47
-26 80 -46 151 -131 294 -229 390 -124 120 -221 148 -359 105z m201 -98 c55
-25 139 -109 188 -187 54 -87 103 -209 145 -354 106 -376 95 -910 -26 -1269
-126 -372 -322 -545 -511 -449 -263 134 -447 749 -394 1322 7 77 14 154 15
170 1 17 7 48 13 70 6 22 18 74 27 115 9 41 20 84 25 95 5 11 14 38 21 60 21
72 97 225 143 288 42 59 96 110 143 135 61 33 146 35 211 4z"/>
<path d="M9660 4101 c-49 -10 -72 -24 -113 -70 -40 -45 -77 -113 -96 -181 -7
-25 -17 -56 -22 -70 -17 -49 -27 -227 -19 -331 15 -181 61 -315 138 -401 56
-62 85 -70 240 -70 123 1 137 3 175 26 72 42 111 101 161 241 51 143 46 456
-9 620 -35 102 -98 190 -158 221 -34 18 -237 28 -297 15z m88 -104 c86 -80
137 -262 135 -485 -1 -101 -6 -140 -29 -220 -39 -139 -97 -225 -161 -238 -26
-5 -37 0 -72 31 -47 43 -82 109 -113 215 -18 64 -22 100 -22 245 0 150 3 179
23 245 63 204 156 285 239 207z m196 6 c47 -35 95 -141 122 -268 19 -90 19
-300 0 -392 -30 -142 -85 -246 -145 -278 -61 -31 -95 -13 -65 33 31 45 55 104
69 167 8 33 19 78 24 100 24 92 8 367 -27 480 -16 51 -53 129 -69 147 -37 41
39 50 91 11z"/>
<path d="M9130 3937 c0 -62 -5 -151 -11 -197 -13 -106 -19 -414 -6 -376 5 14
13 26 18 26 7 0 7 -35 2 -97 -4 -54 -7 -109 -6 -123 5 -101 12 -172 17 -177 3
-4 6 -32 6 -64 0 -76 11 -102 54 -127 25 -15 34 -26 30 -37 -9 -22 -28 -13
-32 13 -2 12 -7 22 -12 22 -15 0 -18 -26 -6 -60 15 -45 34 -132 41 -192 4 -26
10 -50 16 -53 5 -4 9 -27 9 -53 0 -26 7 -56 15 -66 8 -11 15 -32 15 -46 0 -14
4 -30 10 -36 5 -5 10 -26 12 -47 2 -36 12 -49 20 -26 3 8 14 7 35 -5 30 -15
45 -35 74 -96 6 -14 17 -36 23 -50 15 -30 15 -69 1 -71 -5 -1 -13 13 -16 32
-6 29 -24 73 -64 150 -10 20 -30 25 -39 10 -3 -5 3 -26 13 -47 18 -37 41 -90
55 -124 3 -8 15 -28 26 -45 11 -16 27 -44 35 -62 8 -17 19 -34 25 -38 5 -3 10
-15 10 -26 0 -10 6 -19 14 -19 15 0 86 74 86 90 0 6 6 10 13 10 13 0 39 -53
51 -104 6 -26 5 -28 -8 -17 -18 16 -46 8 -46 -13 0 -7 -7 -13 -16 -12 -28 2
-27 -23 0 -35 14 -7 26 -16 26 -20 0 -15 75 -50 97 -46 16 3 27 -2 34 -14 17
-32 107 -23 184 19 46 24 95 66 95 80 0 6 6 12 13 12 10 0 67 55 67 65 0 1 23
36 50 78 28 42 50 80 50 86 0 5 16 39 35 75 19 37 35 75 35 85 0 10 6 24 14
31 8 6 12 18 9 26 -3 7 4 32 16 54 12 22 21 56 21 75 0 18 4 36 9 39 5 3 17
40 26 81 10 42 22 78 27 81 11 7 10 24 -2 24 -5 0 -10 -6 -11 -12 -1 -7 -23
-33 -50 -57 -43 -39 -52 -43 -73 -33 -34 15 -50 1 -42 -41 5 -29 4 -35 -11
-33 -9 0 -22 -8 -28 -19 -19 -36 -74 -86 -102 -94 -19 -5 -31 -17 -38 -37 -5
-17 -22 -42 -37 -56 -16 -14 -28 -29 -29 -34 0 -13 -79 -74 -94 -74 -8 0 -24
13 -37 30 -22 28 -24 29 -52 15 -15 -8 -32 -15 -37 -15 -17 0 -9 25 14 40 24
16 57 22 57 10 0 -20 50 8 103 57 32 29 64 53 71 53 18 0 46 33 46 53 0 19
-15 23 -25 7 -12 -19 -84 -60 -106 -60 -13 0 -19 -5 -16 -12 3 -10 -18 -13
-92 -11 -81 2 -103 6 -143 27 -75 40 -101 57 -139 95 -20 20 -45 43 -55 52
-11 9 -37 46 -59 83 -22 36 -46 65 -52 66 -7 0 -13 10 -13 23 0 12 -7 31 -15
41 -8 11 -15 28 -15 39 0 10 -11 33 -25 51 -16 21 -23 40 -19 50 4 10 -1 25
-11 36 -10 11 -15 26 -12 34 3 7 -4 31 -15 52 -11 21 -22 61 -24 89 -2 27 -10
91 -18 140 -32 194 -43 361 -35 520 4 88 2 135 -5 144 -9 12 -8 13 7 8 15 -6
17 0 17 46 1 29 5 72 9 97 8 38 6 48 -12 72 -40 50 -47 38 -47 -85z m704
-1876 c13 -14 14 -24 7 -45 -6 -14 -17 -26 -26 -26 -9 0 -20 -11 -25 -25 -5
-14 -13 -25 -18 -25 -5 0 -21 -11 -36 -25 -31 -29 -54 -32 -63 -9 -9 23 19 72
76 136 38 42 60 47 85 19z"/>
<path d="M23500 5265 c0 -8 4 -15 10 -15 5 0 21 -21 36 -47 15 -27 37 -65 50
-85 13 -21 24 -45 24 -53 0 -9 7 -18 15 -21 8 -4 15 -15 15 -25 0 -11 11 -37
25 -59 14 -22 25 -43 25 -46 0 -4 12 -23 28 -42 30 -40 52 -78 77 -134 10 -21
21 -38 26 -38 5 0 13 -15 18 -32 9 -33 9 -33 10 -5 1 27 -10 57 -49 127 -10
19 -19 47 -20 61 0 15 -7 32 -15 39 -8 7 -15 21 -15 31 0 22 -17 34 -23 17 -2
-7 -7 -10 -11 -6 -4 3 -3 15 3 25 7 15 5 26 -10 49 -11 16 -26 44 -34 62 -8
18 -21 35 -29 38 -8 3 -26 25 -40 48 -23 39 -99 126 -111 126 -3 0 -5 -7 -5
-15z"/>
<path d="M23848 4553 c0 -5 -2 -12 -3 -18 -2 -5 -3 -15 -4 -21 0 -7 -10 -14
-21 -17 -12 -3 -20 -14 -20 -26 0 -17 4 -20 30 -14 35 6 39 -6 10 -32 -23 -21
-26 -57 -5 -75 8 -7 15 -34 17 -63 2 -41 7 -53 22 -55 10 -2 16 0 13 5 -4 5 0
10 8 10 10 0 15 -11 15 -35 0 -29 -2 -33 -15 -22 -12 10 -15 10 -15 -1 0 -193
-8 -458 -15 -469 -5 -8 -10 -26 -11 -40 -8 -70 -15 -105 -24 -114 -12 -12 -14
-66 -2 -66 4 0 14 6 21 13 10 10 14 9 22 -5 17 -31 39 -22 39 17 0 19 5 35 10
35 11 0 14 33 3 44 -11 10 -12 36 -2 36 5 0 9 19 9 43 0 23 7 53 16 66 12 17
14 28 6 44 -28 62 -33 82 -23 85 14 5 14 109 0 117 -6 4 -7 14 -4 24 4 9 9 59
12 111 4 71 1 111 -12 160 -10 36 -17 86 -16 111 1 25 -5 59 -14 75 -8 16 -15
41 -15 57 0 17 -5 27 -15 27 -8 0 -16 -3 -17 -7z"/>
<path d="M22608 4003 c-4 -9 7 -215 20 -368 4 -55 13 -112 20 -127 6 -15 8
-43 5 -62 -4 -29 -2 -36 11 -36 9 0 16 -8 16 -20 0 -10 10 -25 22 -31 32 -17
98 -90 98 -109 0 -21 -20 -40 -41 -40 -10 0 -21 -5 -25 -11 -9 -15 16 -121 32
-134 6 -6 17 -30 23 -52 6 -23 15 -44 20 -47 4 -3 23 -35 41 -71 19 -37 44
-76 57 -88 12 -12 23 -27 23 -33 0 -15 155 -154 171 -154 4 0 12 8 17 17 8 14
16 15 43 7 30 -9 34 -14 31 -42 -2 -25 2 -32 16 -32 10 0 23 5 29 11 8 8 17 8
32 -1 12 -6 41 -10 64 -8 39 3 42 5 45 35 4 38 24 47 68 31 31 -11 36 -10 50
10 8 12 21 22 27 22 7 0 24 15 39 34 21 26 24 36 15 46 -10 10 -8 12 7 6 14
-5 27 2 48 24 15 17 28 33 28 36 0 2 14 23 30 46 17 22 30 46 30 53 0 7 8 23
18 36 10 13 32 62 48 109 16 47 32 87 36 88 12 5 10 32 -2 32 -5 0 -10 7 -10
15 0 8 4 15 9 15 5 0 18 16 30 35 21 37 18 44 -8 21 -9 -7 -26 -17 -38 -20
-19 -6 -23 -2 -31 26 -8 29 -6 34 13 42 19 8 22 14 17 52 -4 40 -3 44 17 44
24 0 28 -15 6 -24 -18 -7 -20 -26 -2 -26 19 0 77 63 77 83 0 9 -8 17 -17 17
-10 0 -31 7 -47 15 -35 19 -36 19 -36 -2 0 -17 -22 -64 -66 -142 -14 -25 -16
-35 -6 -38 14 -5 17 -43 3 -43 -5 0 -11 5 -13 12 -6 16 -38 2 -38 -15 0 -22
-137 -163 -171 -177 -16 -7 -29 -16 -29 -20 0 -4 -14 -10 -31 -14 -35 -7 -35
-29 0 -34 14 -2 31 5 42 17 12 12 32 21 49 21 45 0 40 -37 -12 -91 -70 -73
-98 -88 -147 -82 -32 4 -41 10 -38 22 2 9 8 15 15 14 6 -2 29 16 51 39 l39 42
-25 13 c-33 17 -64 16 -99 -2 -37 -19 -113 -19 -138 0 -11 8 -32 15 -47 15
-14 0 -32 7 -39 15 -7 8 -20 15 -29 15 -9 0 -33 16 -55 36 -21 19 -40 33 -42
31 -2 -2 1 -18 7 -35 7 -22 19 -33 40 -37 16 -4 29 -11 29 -16 0 -5 9 -9 20
-9 11 0 20 -6 20 -13 0 -8 10 -19 23 -26 27 -15 77 -83 77 -105 0 -9 -7 -19
-15 -22 -27 -11 -60 5 -105 50 -25 25 -51 46 -57 46 -8 0 -13 13 -13 33 -1 40
-14 57 -68 87 -23 13 -49 34 -57 47 -9 13 -22 23 -30 23 -8 0 -15 5 -15 10 0
19 -28 10 -33 -11 -3 -12 -10 -18 -16 -14 -16 10 -13 45 4 45 8 0 15 8 15 19
0 30 23 43 54 31 34 -13 36 -13 36 3 0 6 -16 22 -35 34 -20 13 -38 35 -41 50
-4 16 -14 33 -22 39 -9 6 -13 18 -9 27 3 9 2 17 -4 19 -5 2 -12 16 -15 31 -2
16 -14 38 -24 50 -11 11 -20 29 -20 40 0 10 -8 32 -17 48 -13 22 -15 31 -5 41
9 9 8 16 -7 32 -14 15 -20 38 -22 81 -1 33 -6 71 -11 83 -4 13 -10 67 -11 120
-3 79 -7 98 -19 100 -9 2 -18 -1 -20 -5z m1162 -800 c0 -21 -52 -103 -66 -103
-6 0 -28 -13 -49 -29 -38 -28 -75 -31 -75 -5 0 7 19 32 41 56 23 24 48 53 56
66 9 12 26 22 39 22 12 0 26 5 29 10 9 14 25 3 25 -17z m-400 -372 c14 -27 13
-51 -3 -51 -7 0 -18 -9 -25 -21 -12 -18 -11 -24 7 -43 22 -23 29 -76 11 -76
-6 0 -27 8 -48 17 -20 9 -53 17 -72 18 -34 0 -35 1 -35 39 0 22 -5 41 -12 43
-18 6 -16 38 2 53 12 10 21 10 41 1 34 -15 37 -15 68 14 32 30 52 32 66 6z"/>
<path d="M18090 5298 c0 -8 14 -22 31 -32 28 -16 30 -20 15 -28 -16 -9 -16
-11 -1 -28 19 -21 58 -88 81 -140 9 -19 22 -39 30 -43 8 -4 14 -16 15 -25 0
-9 9 -30 20 -47 10 -16 23 -40 28 -52 5 -11 14 -24 20 -27 5 -4 22 -32 37 -64
15 -31 39 -75 54 -97 15 -22 39 -65 54 -96 14 -31 35 -64 46 -74 19 -17 19
-17 9 16 -6 19 -17 61 -25 94 -8 32 -20 63 -27 67 -7 4 -11 26 -10 50 3 55 -5
91 -17 83 -6 -4 -10 9 -10 29 0 42 -14 46 -47 14 -20 -18 -23 -19 -23 -5 0 9
4 17 8 17 4 0 12 13 18 28 12 32 2 72 -22 85 -8 4 -14 16 -14 26 0 10 -9 30
-20 44 -11 14 -20 30 -20 36 0 6 -7 11 -16 11 -9 0 -14 6 -11 14 3 7 -2 20
-11 29 -10 8 -33 32 -52 52 -46 48 -140 90 -140 63z"/>
<path d="M18532 4129 c-1 -72 -6 -137 -11 -143 -5 -6 -11 -36 -14 -66 -10 -89
-23 -150 -35 -162 -7 -7 -12 -22 -12 -34 0 -13 -6 -29 -13 -36 -7 -7 -22 -34
-33 -60 -11 -26 -37 -67 -59 -90 -31 -35 -35 -44 -21 -46 10 -2 24 5 31 15 14
17 14 17 15 0 0 -29 -19 -57 -40 -57 -11 0 -20 5 -20 10 0 6 -5 10 -10 10 -14
0 -110 -72 -110 -82 0 -4 -8 -8 -17 -8 -9 0 -24 -7 -34 -16 -14 -13 -38 -16
-108 -15 -89 2 -135 15 -161 46 -7 8 -16 15 -21 15 -10 0 -43 26 -74 58 -12
12 -27 22 -34 22 -6 0 -11 9 -11 19 0 33 -15 32 -51 -5 -27 -28 -33 -41 -30
-67 1 -18 9 -36 17 -40 8 -4 14 -18 14 -31 0 -28 28 -86 41 -86 6 0 15 -13 20
-30 6 -16 15 -30 20 -30 5 0 9 -7 9 -16 0 -16 9 -28 77 -95 64 -63 126 -89
209 -89 63 0 69 2 130 47 35 26 64 50 64 54 0 3 18 24 40 45 22 22 40 45 40
52 0 7 7 15 15 18 8 4 15 18 15 34 0 15 6 30 14 33 7 3 17 18 20 34 9 35 48
117 59 121 4 2 7 16 7 30 -1 25 -2 25 -14 10 -18 -24 -28 -22 -24 5 2 14 10
22 23 22 12 0 22 9 26 25 4 14 13 45 20 70 7 25 13 71 13 103 1 53 9 73 18 45
3 -9 6 -9 12 0 4 7 2 12 -3 12 -14 0 -14 54 -2 98 6 18 15 104 22 192 10 128
10 162 -1 175 -7 8 -15 15 -19 15 -4 0 -8 -59 -9 -131z"/>
<path d="M17543 3993 c-1 -21 3 -40 8 -43 4 -3 10 -48 11 -99 2 -59 8 -96 16
-103 6 -6 12 -32 12 -59 0 -27 5 -49 10 -49 6 0 10 -20 10 -45 0 -52 11 -56
55 -19 27 22 29 26 13 37 -9 7 -20 26 -24 43 -3 16 -16 39 -27 51 -11 13 -21
35 -22 50 -1 16 -11 71 -23 123 -11 52 -18 107 -15 123 4 19 1 27 -9 27 -9 0
-14 -12 -15 -37z"/>
</g>
</svg>
